<mxfile host="app.diagrams.net" modified="2022-09-30T15:00:44.421Z" agent="5.0 (X11; Linux x86_64) AppleWebKit/537.36 (KHTML, like Gecko) Chrome/105.0.0.0 Safari/537.36 OPR/91.0.4516.16" etag="m7zXtVrC3wYenkqUV4ao" version="20.3.6" type="github" pages="7">
  <diagram id="7KZfYWIjYbdN95Mjvhwt" name="example-1">
    <mxGraphModel dx="476" dy="591" grid="1" gridSize="10" guides="1" tooltips="1" connect="1" arrows="1" fold="1" page="1" pageScale="1" pageWidth="827" pageHeight="1169" math="0" shadow="0">
      <root>
        <mxCell id="0" />
        <mxCell id="1" parent="0" />
        <mxCell id="Xll2jieKxLTf0zfARewV-1" value="Country" style="swimlane;fontStyle=0;childLayout=stackLayout;horizontal=1;startSize=26;horizontalStack=0;resizeParent=1;resizeParentMax=0;resizeLast=0;collapsible=1;marginBottom=0;fillColor=#f5f5f5;fontColor=#333333;strokeColor=#666666;" parent="1" vertex="1">
          <mxGeometry x="40" y="40" width="120" height="104" as="geometry" />
        </mxCell>
        <mxCell id="Xll2jieKxLTf0zfARewV-2" value="+ name" style="text;strokeColor=none;fillColor=none;align=left;verticalAlign=top;spacingLeft=4;spacingRight=4;overflow=hidden;rotatable=0;points=[[0,0.5],[1,0.5]];portConstraint=eastwest;" parent="Xll2jieKxLTf0zfARewV-1" vertex="1">
          <mxGeometry y="26" width="120" height="26" as="geometry" />
        </mxCell>
        <mxCell id="Xll2jieKxLTf0zfARewV-3" value="+ population" style="text;strokeColor=none;fillColor=none;align=left;verticalAlign=top;spacingLeft=4;spacingRight=4;overflow=hidden;rotatable=0;points=[[0,0.5],[1,0.5]];portConstraint=eastwest;" parent="Xll2jieKxLTf0zfARewV-1" vertex="1">
          <mxGeometry y="52" width="120" height="26" as="geometry" />
        </mxCell>
        <mxCell id="Xll2jieKxLTf0zfARewV-4" value="+ area" style="text;strokeColor=none;fillColor=none;align=left;verticalAlign=top;spacingLeft=4;spacingRight=4;overflow=hidden;rotatable=0;points=[[0,0.5],[1,0.5]];portConstraint=eastwest;" parent="Xll2jieKxLTf0zfARewV-1" vertex="1">
          <mxGeometry y="78" width="120" height="26" as="geometry" />
        </mxCell>
        <mxCell id="Xll2jieKxLTf0zfARewV-10" value="City" style="swimlane;fontStyle=0;childLayout=stackLayout;horizontal=1;startSize=26;fillColor=#f5f5f5;horizontalStack=0;resizeParent=1;resizeParentMax=0;resizeLast=0;collapsible=1;marginBottom=0;strokeColor=#666666;fontColor=#333333;" parent="1" vertex="1">
          <mxGeometry x="414" y="53" width="120" height="78" as="geometry" />
        </mxCell>
        <mxCell id="Xll2jieKxLTf0zfARewV-11" value="+ name" style="text;strokeColor=none;fillColor=none;align=left;verticalAlign=top;spacingLeft=4;spacingRight=4;overflow=hidden;rotatable=0;points=[[0,0.5],[1,0.5]];portConstraint=eastwest;" parent="Xll2jieKxLTf0zfARewV-10" vertex="1">
          <mxGeometry y="26" width="120" height="26" as="geometry" />
        </mxCell>
        <mxCell id="Xll2jieKxLTf0zfARewV-12" value="+ population" style="text;strokeColor=none;fillColor=none;align=left;verticalAlign=top;spacingLeft=4;spacingRight=4;overflow=hidden;rotatable=0;points=[[0,0.5],[1,0.5]];portConstraint=eastwest;" parent="Xll2jieKxLTf0zfARewV-10" vertex="1">
          <mxGeometry y="52" width="120" height="26" as="geometry" />
        </mxCell>
        <mxCell id="Xll2jieKxLTf0zfARewV-15" value="" style="endArrow=none;html=1;edgeStyle=orthogonalEdgeStyle;rounded=0;" parent="1" source="Xll2jieKxLTf0zfARewV-1" target="Xll2jieKxLTf0zfARewV-10" edge="1">
          <mxGeometry relative="1" as="geometry">
            <mxPoint x="100" y="340" as="sourcePoint" />
            <mxPoint x="260" y="340" as="targetPoint" />
          </mxGeometry>
        </mxCell>
        <mxCell id="Xll2jieKxLTf0zfARewV-16" value="1&amp;nbsp;&amp;nbsp;" style="edgeLabel;resizable=0;html=1;align=left;verticalAlign=bottom;" parent="Xll2jieKxLTf0zfARewV-15" connectable="0" vertex="1">
          <mxGeometry x="-1" relative="1" as="geometry" />
        </mxCell>
        <mxCell id="Xll2jieKxLTf0zfARewV-17" value="*" style="edgeLabel;resizable=0;html=1;align=right;verticalAlign=bottom;" parent="Xll2jieKxLTf0zfARewV-15" connectable="0" vertex="1">
          <mxGeometry x="1" relative="1" as="geometry" />
        </mxCell>
        <mxCell id="Xll2jieKxLTf0zfARewV-19" value="Country" style="swimlane;fontStyle=0;childLayout=stackLayout;horizontal=1;startSize=26;horizontalStack=0;resizeParent=1;resizeParentMax=0;resizeLast=0;collapsible=1;marginBottom=0;fillColor=#f5f5f5;fontColor=#333333;strokeColor=#666666;" parent="1" vertex="1">
          <mxGeometry x="40" y="200" width="120" height="130" as="geometry" />
        </mxCell>
        <mxCell id="Xll2jieKxLTf0zfARewV-20" value="+ name" style="text;strokeColor=none;fillColor=none;align=left;verticalAlign=top;spacingLeft=4;spacingRight=4;overflow=hidden;rotatable=0;points=[[0,0.5],[1,0.5]];portConstraint=eastwest;" parent="Xll2jieKxLTf0zfARewV-19" vertex="1">
          <mxGeometry y="26" width="120" height="26" as="geometry" />
        </mxCell>
        <mxCell id="Xll2jieKxLTf0zfARewV-21" value="+ population" style="text;strokeColor=none;fillColor=none;align=left;verticalAlign=top;spacingLeft=4;spacingRight=4;overflow=hidden;rotatable=0;points=[[0,0.5],[1,0.5]];portConstraint=eastwest;" parent="Xll2jieKxLTf0zfARewV-19" vertex="1">
          <mxGeometry y="52" width="120" height="26" as="geometry" />
        </mxCell>
        <mxCell id="Xll2jieKxLTf0zfARewV-29" value="+ area" style="text;strokeColor=none;fillColor=none;align=left;verticalAlign=top;spacingLeft=4;spacingRight=4;overflow=hidden;rotatable=0;points=[[0,0.5],[1,0.5]];portConstraint=eastwest;" parent="Xll2jieKxLTf0zfARewV-19" vertex="1">
          <mxGeometry y="78" width="120" height="26" as="geometry" />
        </mxCell>
        <mxCell id="Xll2jieKxLTf0zfARewV-22" value="+ capital" style="text;strokeColor=none;fillColor=none;align=left;verticalAlign=top;spacingLeft=4;spacingRight=4;overflow=hidden;rotatable=0;points=[[0,0.5],[1,0.5]];portConstraint=eastwest;" parent="Xll2jieKxLTf0zfARewV-19" vertex="1">
          <mxGeometry y="104" width="120" height="26" as="geometry" />
        </mxCell>
        <mxCell id="Xll2jieKxLTf0zfARewV-23" value="City" style="swimlane;fontStyle=0;childLayout=stackLayout;horizontal=1;startSize=26;fillColor=#f5f5f5;horizontalStack=0;resizeParent=1;resizeParentMax=0;resizeLast=0;collapsible=1;marginBottom=0;strokeColor=#666666;fontColor=#333333;" parent="1" vertex="1">
          <mxGeometry x="414" y="226" width="120" height="78" as="geometry" />
        </mxCell>
        <mxCell id="Xll2jieKxLTf0zfARewV-24" value="+ name" style="text;strokeColor=none;fillColor=none;align=left;verticalAlign=top;spacingLeft=4;spacingRight=4;overflow=hidden;rotatable=0;points=[[0,0.5],[1,0.5]];portConstraint=eastwest;" parent="Xll2jieKxLTf0zfARewV-23" vertex="1">
          <mxGeometry y="26" width="120" height="26" as="geometry" />
        </mxCell>
        <mxCell id="Xll2jieKxLTf0zfARewV-25" value="+ population" style="text;strokeColor=none;fillColor=none;align=left;verticalAlign=top;spacingLeft=4;spacingRight=4;overflow=hidden;rotatable=0;points=[[0,0.5],[1,0.5]];portConstraint=eastwest;" parent="Xll2jieKxLTf0zfARewV-23" vertex="1">
          <mxGeometry y="52" width="120" height="26" as="geometry" />
        </mxCell>
        <mxCell id="Xll2jieKxLTf0zfARewV-26" value="" style="endArrow=none;html=1;edgeStyle=orthogonalEdgeStyle;rounded=0;" parent="1" source="Xll2jieKxLTf0zfARewV-19" target="Xll2jieKxLTf0zfARewV-23" edge="1">
          <mxGeometry relative="1" as="geometry">
            <mxPoint x="100" y="500" as="sourcePoint" />
            <mxPoint x="260" y="500" as="targetPoint" />
          </mxGeometry>
        </mxCell>
        <mxCell id="Xll2jieKxLTf0zfARewV-27" value="1&amp;nbsp;&amp;nbsp;" style="edgeLabel;resizable=0;html=1;align=left;verticalAlign=bottom;" parent="Xll2jieKxLTf0zfARewV-26" connectable="0" vertex="1">
          <mxGeometry x="-1" relative="1" as="geometry" />
        </mxCell>
        <mxCell id="Xll2jieKxLTf0zfARewV-28" value="*" style="edgeLabel;resizable=0;html=1;align=right;verticalAlign=bottom;" parent="Xll2jieKxLTf0zfARewV-26" connectable="0" vertex="1">
          <mxGeometry x="1" relative="1" as="geometry" />
        </mxCell>
        <mxCell id="Xll2jieKxLTf0zfARewV-30" value="ERROR: attribute capital it cannot exist in country&lt;br&gt;" style="text;html=1;strokeColor=none;fillColor=none;align=center;verticalAlign=middle;whiteSpace=wrap;rounded=0;" parent="1" vertex="1">
          <mxGeometry x="160" y="270" width="120" height="60" as="geometry" />
        </mxCell>
        <mxCell id="Xll2jieKxLTf0zfARewV-31" value="Country" style="swimlane;fontStyle=0;childLayout=stackLayout;horizontal=1;startSize=26;horizontalStack=0;resizeParent=1;resizeParentMax=0;resizeLast=0;collapsible=1;marginBottom=0;fillColor=#f5f5f5;fontColor=#333333;strokeColor=#666666;" parent="1" vertex="1">
          <mxGeometry x="40" y="400" width="120" height="104" as="geometry" />
        </mxCell>
        <mxCell id="Xll2jieKxLTf0zfARewV-32" value="+ name" style="text;strokeColor=none;fillColor=none;align=left;verticalAlign=top;spacingLeft=4;spacingRight=4;overflow=hidden;rotatable=0;points=[[0,0.5],[1,0.5]];portConstraint=eastwest;" parent="Xll2jieKxLTf0zfARewV-31" vertex="1">
          <mxGeometry y="26" width="120" height="26" as="geometry" />
        </mxCell>
        <mxCell id="Xll2jieKxLTf0zfARewV-33" value="+ population" style="text;strokeColor=none;fillColor=none;align=left;verticalAlign=top;spacingLeft=4;spacingRight=4;overflow=hidden;rotatable=0;points=[[0,0.5],[1,0.5]];portConstraint=eastwest;" parent="Xll2jieKxLTf0zfARewV-31" vertex="1">
          <mxGeometry y="52" width="120" height="26" as="geometry" />
        </mxCell>
        <mxCell id="Xll2jieKxLTf0zfARewV-34" value="+ area" style="text;strokeColor=none;fillColor=none;align=left;verticalAlign=top;spacingLeft=4;spacingRight=4;overflow=hidden;rotatable=0;points=[[0,0.5],[1,0.5]];portConstraint=eastwest;" parent="Xll2jieKxLTf0zfARewV-31" vertex="1">
          <mxGeometry y="78" width="120" height="26" as="geometry" />
        </mxCell>
        <mxCell id="Xll2jieKxLTf0zfARewV-36" value="City" style="swimlane;fontStyle=0;childLayout=stackLayout;horizontal=1;startSize=26;fillColor=#f5f5f5;horizontalStack=0;resizeParent=1;resizeParentMax=0;resizeLast=0;collapsible=1;marginBottom=0;strokeColor=#666666;fontColor=#333333;" parent="1" vertex="1">
          <mxGeometry x="414" y="413" width="120" height="78" as="geometry" />
        </mxCell>
        <mxCell id="Xll2jieKxLTf0zfARewV-37" value="+ name" style="text;strokeColor=none;fillColor=none;align=left;verticalAlign=top;spacingLeft=4;spacingRight=4;overflow=hidden;rotatable=0;points=[[0,0.5],[1,0.5]];portConstraint=eastwest;" parent="Xll2jieKxLTf0zfARewV-36" vertex="1">
          <mxGeometry y="26" width="120" height="26" as="geometry" />
        </mxCell>
        <mxCell id="Xll2jieKxLTf0zfARewV-38" value="+ population" style="text;strokeColor=none;fillColor=none;align=left;verticalAlign=top;spacingLeft=4;spacingRight=4;overflow=hidden;rotatable=0;points=[[0,0.5],[1,0.5]];portConstraint=eastwest;" parent="Xll2jieKxLTf0zfARewV-36" vertex="1">
          <mxGeometry y="52" width="120" height="26" as="geometry" />
        </mxCell>
        <mxCell id="Xll2jieKxLTf0zfARewV-39" value="" style="endArrow=none;html=1;edgeStyle=orthogonalEdgeStyle;rounded=0;" parent="1" source="Xll2jieKxLTf0zfARewV-31" target="Xll2jieKxLTf0zfARewV-36" edge="1">
          <mxGeometry relative="1" as="geometry">
            <mxPoint x="100" y="700" as="sourcePoint" />
            <mxPoint x="260" y="700" as="targetPoint" />
            <Array as="points">
              <mxPoint x="260" y="440" />
              <mxPoint x="260" y="440" />
            </Array>
          </mxGeometry>
        </mxCell>
        <mxCell id="Xll2jieKxLTf0zfARewV-40" value="1&amp;nbsp;&amp;nbsp;" style="edgeLabel;resizable=0;html=1;align=left;verticalAlign=bottom;" parent="Xll2jieKxLTf0zfARewV-39" connectable="0" vertex="1">
          <mxGeometry x="-1" relative="1" as="geometry" />
        </mxCell>
        <mxCell id="Xll2jieKxLTf0zfARewV-41" value="*" style="edgeLabel;resizable=0;html=1;align=right;verticalAlign=bottom;" parent="Xll2jieKxLTf0zfARewV-39" connectable="0" vertex="1">
          <mxGeometry x="1" relative="1" as="geometry" />
        </mxCell>
        <mxCell id="Xll2jieKxLTf0zfARewV-44" value="It has capital" style="endArrow=none;html=1;endSize=12;startArrow=none;startSize=14;startFill=0;edgeStyle=orthogonalEdgeStyle;rounded=0;endFill=0;" parent="1" source="Xll2jieKxLTf0zfARewV-31" target="Xll2jieKxLTf0zfARewV-36" edge="1">
          <mxGeometry relative="1" as="geometry">
            <mxPoint x="190" y="490" as="sourcePoint" />
            <mxPoint x="350" y="490" as="targetPoint" />
            <Array as="points">
              <mxPoint x="290" y="480" />
              <mxPoint x="290" y="480" />
            </Array>
          </mxGeometry>
        </mxCell>
        <mxCell id="Xll2jieKxLTf0zfARewV-45" value="1" style="edgeLabel;resizable=0;html=1;align=left;verticalAlign=top;" parent="Xll2jieKxLTf0zfARewV-44" connectable="0" vertex="1">
          <mxGeometry x="-1" relative="1" as="geometry" />
        </mxCell>
        <mxCell id="Xll2jieKxLTf0zfARewV-46" value="0..1" style="edgeLabel;resizable=0;html=1;align=right;verticalAlign=top;" parent="Xll2jieKxLTf0zfARewV-44" connectable="0" vertex="1">
          <mxGeometry x="1" relative="1" as="geometry" />
        </mxCell>
        <mxCell id="viccaOPW8bX6vOgGV1Bo-1" value="" style="shape=umlDestroy;whiteSpace=wrap;html=1;strokeWidth=3;strokeColor=default;" parent="1" vertex="1">
          <mxGeometry x="160" y="190" width="30" height="30" as="geometry" />
        </mxCell>
      </root>
    </mxGraphModel>
  </diagram>
  <diagram id="sloOi_q-tMmKjbVUdBen" name="example-2">
    <mxGraphModel dx="586" dy="625" grid="1" gridSize="10" guides="1" tooltips="1" connect="1" arrows="1" fold="1" page="1" pageScale="1" pageWidth="827" pageHeight="1169" math="0" shadow="0">
      <root>
        <mxCell id="0" />
        <mxCell id="1" parent="0" />
        <mxCell id="KFNhH6q9DPV85q8Wm0AQ-1" value="Employe" style="swimlane;fontStyle=0;childLayout=stackLayout;horizontal=1;startSize=26;horizontalStack=0;resizeParent=1;resizeParentMax=0;resizeLast=0;collapsible=1;marginBottom=0;fillColor=#f5f5f5;fontColor=#333333;strokeColor=#666666;" vertex="1" parent="1">
          <mxGeometry x="40" y="200" width="120" height="78" as="geometry" />
        </mxCell>
        <mxCell id="KFNhH6q9DPV85q8Wm0AQ-2" value="+ nCC" style="text;strokeColor=none;fillColor=none;align=left;verticalAlign=top;spacingLeft=4;spacingRight=4;overflow=hidden;rotatable=0;points=[[0,0.5],[1,0.5]];portConstraint=eastwest;" vertex="1" parent="KFNhH6q9DPV85q8Wm0AQ-1">
          <mxGeometry y="26" width="120" height="26" as="geometry" />
        </mxCell>
        <mxCell id="KFNhH6q9DPV85q8Wm0AQ-3" value="+ Chef" style="text;strokeColor=none;fillColor=none;align=left;verticalAlign=top;spacingLeft=4;spacingRight=4;overflow=hidden;rotatable=0;points=[[0,0.5],[1,0.5]];portConstraint=eastwest;" vertex="1" parent="KFNhH6q9DPV85q8Wm0AQ-1">
          <mxGeometry y="52" width="120" height="26" as="geometry" />
        </mxCell>
        <mxCell id="KFNhH6q9DPV85q8Wm0AQ-12" value="example of self-Association" style="text;html=1;strokeColor=none;fillColor=none;align=center;verticalAlign=middle;whiteSpace=wrap;rounded=0;" vertex="1" parent="1">
          <mxGeometry x="40" y="278" width="120" height="60" as="geometry" />
        </mxCell>
        <mxCell id="KFNhH6q9DPV85q8Wm0AQ-14" style="edgeStyle=orthogonalEdgeStyle;rounded=0;orthogonalLoop=1;jettySize=auto;html=1;startArrow=none;startFill=0;endArrow=none;endFill=0;" edge="1" parent="1" source="KFNhH6q9DPV85q8Wm0AQ-1" target="KFNhH6q9DPV85q8Wm0AQ-1">
          <mxGeometry relative="1" as="geometry">
            <Array as="points">
              <mxPoint x="100" y="160" />
              <mxPoint x="230" y="160" />
              <mxPoint x="230" y="250" />
            </Array>
          </mxGeometry>
        </mxCell>
        <mxCell id="KFNhH6q9DPV85q8Wm0AQ-15" value="It has" style="edgeLabel;html=1;align=center;verticalAlign=middle;resizable=0;points=[];" vertex="1" connectable="0" parent="KFNhH6q9DPV85q8Wm0AQ-14">
          <mxGeometry x="-0.2799" y="-1" relative="1" as="geometry">
            <mxPoint x="-17" y="-3" as="offset" />
          </mxGeometry>
        </mxCell>
        <mxCell id="KFNhH6q9DPV85q8Wm0AQ-17" value="*" style="text;html=1;align=center;verticalAlign=middle;resizable=0;points=[];autosize=1;strokeColor=none;fillColor=none;" vertex="1" parent="1">
          <mxGeometry x="75" y="175" width="30" height="30" as="geometry" />
        </mxCell>
        <mxCell id="KFNhH6q9DPV85q8Wm0AQ-18" value="1" style="text;html=1;align=center;verticalAlign=middle;resizable=0;points=[];autosize=1;strokeColor=none;fillColor=none;" vertex="1" parent="1">
          <mxGeometry x="155" y="248" width="30" height="30" as="geometry" />
        </mxCell>
      </root>
    </mxGraphModel>
  </diagram>
  <diagram id="WGE2hdbEvRRQeTi75RQU" name="F01_ex1">
    <mxGraphModel dx="476" dy="1760" grid="1" gridSize="10" guides="1" tooltips="1" connect="1" arrows="1" fold="1" page="1" pageScale="1" pageWidth="827" pageHeight="1169" math="0" shadow="0">
      <root>
        <mxCell id="0" />
        <mxCell id="1" parent="0" />
        <mxCell id="jKbC4CVtNAtlakf_4l8n-1" value="Tag" style="swimlane;fontStyle=0;childLayout=stackLayout;horizontal=1;startSize=20;horizontalStack=0;resizeParent=1;resizeParentMax=0;resizeLast=0;collapsible=1;marginBottom=0;fillColor=#f5f5f5;fontColor=#333333;strokeColor=#666666;" parent="1" vertex="1">
          <mxGeometry x="40" y="-1095" width="120" height="98" as="geometry" />
        </mxCell>
        <mxCell id="jKbC4CVtNAtlakf_4l8n-2" value="+ name" style="text;strokeColor=none;fillColor=none;align=left;verticalAlign=top;spacingLeft=4;spacingRight=4;overflow=hidden;rotatable=0;points=[[0,0.5],[1,0.5]];portConstraint=eastwest;" parent="jKbC4CVtNAtlakf_4l8n-1" vertex="1">
          <mxGeometry y="20" width="120" height="26" as="geometry" />
        </mxCell>
        <mxCell id="jKbC4CVtNAtlakf_4l8n-3" value="+ countryOrigin" style="text;strokeColor=none;fillColor=none;align=left;verticalAlign=top;spacingLeft=4;spacingRight=4;overflow=hidden;rotatable=0;points=[[0,0.5],[1,0.5]];portConstraint=eastwest;" parent="jKbC4CVtNAtlakf_4l8n-1" vertex="1">
          <mxGeometry y="46" width="120" height="26" as="geometry" />
        </mxCell>
        <mxCell id="jKbC4CVtNAtlakf_4l8n-4" value="+ nPoints" style="text;strokeColor=none;fillColor=none;align=left;verticalAlign=top;spacingLeft=4;spacingRight=4;overflow=hidden;rotatable=0;points=[[0,0.5],[1,0.5]];portConstraint=eastwest;" parent="jKbC4CVtNAtlakf_4l8n-1" vertex="1">
          <mxGeometry y="72" width="120" height="26" as="geometry" />
        </mxCell>
        <mxCell id="jKbC4CVtNAtlakf_4l8n-5" value="Car" style="swimlane;fontStyle=0;childLayout=stackLayout;horizontal=1;startSize=17;fillColor=#f5f5f5;horizontalStack=0;resizeParent=1;resizeParentMax=0;resizeLast=0;collapsible=1;marginBottom=0;strokeColor=#666666;fontColor=#333333;" parent="1" vertex="1">
          <mxGeometry x="490" y="-1106.5" width="120" height="121" as="geometry" />
        </mxCell>
        <mxCell id="jKbC4CVtNAtlakf_4l8n-6" value="+ name" style="text;strokeColor=none;fillColor=none;align=left;verticalAlign=top;spacingLeft=4;spacingRight=4;overflow=hidden;rotatable=0;points=[[0,0.5],[1,0.5]];portConstraint=eastwest;" parent="jKbC4CVtNAtlakf_4l8n-5" vertex="1">
          <mxGeometry y="17" width="120" height="26" as="geometry" />
        </mxCell>
        <mxCell id="rhkAmZm-7bZTZPfbM_GP-15" value="+ weight" style="text;strokeColor=none;fillColor=none;align=left;verticalAlign=top;spacingLeft=4;spacingRight=4;overflow=hidden;rotatable=0;points=[[0,0.5],[1,0.5]];portConstraint=eastwest;" parent="jKbC4CVtNAtlakf_4l8n-5" vertex="1">
          <mxGeometry y="43" width="120" height="26" as="geometry" />
        </mxCell>
        <mxCell id="rhkAmZm-7bZTZPfbM_GP-14" value="+ power" style="text;strokeColor=none;fillColor=none;align=left;verticalAlign=top;spacingLeft=4;spacingRight=4;overflow=hidden;rotatable=0;points=[[0,0.5],[1,0.5]];portConstraint=eastwest;" parent="jKbC4CVtNAtlakf_4l8n-5" vertex="1">
          <mxGeometry y="69" width="120" height="26" as="geometry" />
        </mxCell>
        <mxCell id="jKbC4CVtNAtlakf_4l8n-7" value="+ velMax" style="text;strokeColor=none;fillColor=none;align=left;verticalAlign=top;spacingLeft=4;spacingRight=4;overflow=hidden;rotatable=0;points=[[0,0.5],[1,0.5]];portConstraint=eastwest;" parent="jKbC4CVtNAtlakf_4l8n-5" vertex="1">
          <mxGeometry y="95" width="120" height="26" as="geometry" />
        </mxCell>
        <mxCell id="jKbC4CVtNAtlakf_4l8n-8" value="" style="endArrow=none;html=1;edgeStyle=orthogonalEdgeStyle;rounded=0;" parent="1" source="jKbC4CVtNAtlakf_4l8n-1" target="jKbC4CVtNAtlakf_4l8n-5" edge="1">
          <mxGeometry relative="1" as="geometry">
            <mxPoint x="100" y="-820" as="sourcePoint" />
            <mxPoint x="260" y="-820" as="targetPoint" />
            <Array as="points" />
          </mxGeometry>
        </mxCell>
        <mxCell id="jKbC4CVtNAtlakf_4l8n-9" value="1&amp;nbsp;&amp;nbsp;" style="edgeLabel;resizable=0;html=1;align=left;verticalAlign=bottom;" parent="jKbC4CVtNAtlakf_4l8n-8" connectable="0" vertex="1">
          <mxGeometry x="-1" relative="1" as="geometry">
            <mxPoint x="3" y="-3" as="offset" />
          </mxGeometry>
        </mxCell>
        <mxCell id="jKbC4CVtNAtlakf_4l8n-10" value="*" style="edgeLabel;resizable=0;html=1;align=right;verticalAlign=bottom;" parent="jKbC4CVtNAtlakf_4l8n-8" connectable="0" vertex="1">
          <mxGeometry x="1" relative="1" as="geometry">
            <mxPoint x="-4" y="-3" as="offset" />
          </mxGeometry>
        </mxCell>
        <mxCell id="tnee3qmUrMOMnvW3oZl8-1" value="-" style="text;html=1;strokeColor=none;fillColor=none;align=center;verticalAlign=middle;whiteSpace=wrap;rounded=0;" parent="1" vertex="1">
          <mxGeometry x="560" y="-1076" width="120" height="60" as="geometry" />
        </mxCell>
        <mxCell id="zHmY9NEWCWzjRzKXrB1o-13" style="edgeStyle=orthogonalEdgeStyle;rounded=0;orthogonalLoop=1;jettySize=auto;html=1;startArrow=none;startFill=0;endArrow=none;endFill=0;" parent="1" source="rhkAmZm-7bZTZPfbM_GP-16" target="zHmY9NEWCWzjRzKXrB1o-1" edge="1">
          <mxGeometry relative="1" as="geometry" />
        </mxCell>
        <mxCell id="zHmY9NEWCWzjRzKXrB1o-33" value="*" style="edgeLabel;html=1;align=center;verticalAlign=middle;resizable=0;points=[];" parent="zHmY9NEWCWzjRzKXrB1o-13" vertex="1" connectable="0">
          <mxGeometry x="-0.8326" y="-4" relative="1" as="geometry">
            <mxPoint y="-7" as="offset" />
          </mxGeometry>
        </mxCell>
        <mxCell id="rhkAmZm-7bZTZPfbM_GP-16" value="Pilot" style="swimlane;fontStyle=0;childLayout=stackLayout;horizontal=1;startSize=20;horizontalStack=0;resizeParent=1;resizeParentMax=0;resizeLast=0;collapsible=1;marginBottom=0;fillColor=#f5f5f5;fontColor=#333333;strokeColor=#666666;" parent="1" vertex="1">
          <mxGeometry x="490" y="-914" width="120" height="150" as="geometry" />
        </mxCell>
        <mxCell id="rhkAmZm-7bZTZPfbM_GP-17" value="+ name" style="text;strokeColor=none;fillColor=none;align=left;verticalAlign=top;spacingLeft=4;spacingRight=4;overflow=hidden;rotatable=0;points=[[0,0.5],[1,0.5]];portConstraint=eastwest;" parent="rhkAmZm-7bZTZPfbM_GP-16" vertex="1">
          <mxGeometry y="20" width="120" height="26" as="geometry" />
        </mxCell>
        <mxCell id="rhkAmZm-7bZTZPfbM_GP-18" value="+ age" style="text;strokeColor=none;fillColor=none;align=left;verticalAlign=top;spacingLeft=4;spacingRight=4;overflow=hidden;rotatable=0;points=[[0,0.5],[1,0.5]];portConstraint=eastwest;" parent="rhkAmZm-7bZTZPfbM_GP-16" vertex="1">
          <mxGeometry y="46" width="120" height="26" as="geometry" />
        </mxCell>
        <mxCell id="rhkAmZm-7bZTZPfbM_GP-19" value="+ address&#xa;" style="text;strokeColor=none;fillColor=none;align=left;verticalAlign=top;spacingLeft=4;spacingRight=4;overflow=hidden;rotatable=0;points=[[0,0.5],[1,0.5]];portConstraint=eastwest;" parent="rhkAmZm-7bZTZPfbM_GP-16" vertex="1">
          <mxGeometry y="72" width="120" height="26" as="geometry" />
        </mxCell>
        <mxCell id="rhkAmZm-7bZTZPfbM_GP-24" value="+ nationality" style="text;strokeColor=none;fillColor=none;align=left;verticalAlign=top;spacingLeft=4;spacingRight=4;overflow=hidden;rotatable=0;points=[[0,0.5],[1,0.5]];portConstraint=eastwest;" parent="rhkAmZm-7bZTZPfbM_GP-16" vertex="1">
          <mxGeometry y="98" width="120" height="26" as="geometry" />
        </mxCell>
        <mxCell id="rhkAmZm-7bZTZPfbM_GP-25" value="+ nPoints" style="text;strokeColor=none;fillColor=none;align=left;verticalAlign=top;spacingLeft=4;spacingRight=4;overflow=hidden;rotatable=0;points=[[0,0.5],[1,0.5]];portConstraint=eastwest;" parent="rhkAmZm-7bZTZPfbM_GP-16" vertex="1">
          <mxGeometry y="124" width="120" height="26" as="geometry" />
        </mxCell>
        <mxCell id="rhkAmZm-7bZTZPfbM_GP-26" value="" style="endArrow=none;html=1;edgeStyle=orthogonalEdgeStyle;rounded=0;" parent="1" source="jKbC4CVtNAtlakf_4l8n-5" target="rhkAmZm-7bZTZPfbM_GP-16" edge="1">
          <mxGeometry relative="1" as="geometry">
            <mxPoint x="170" y="-1050" as="sourcePoint" />
            <mxPoint x="424" y="-1050" as="targetPoint" />
            <Array as="points" />
          </mxGeometry>
        </mxCell>
        <mxCell id="rhkAmZm-7bZTZPfbM_GP-27" value="1&amp;nbsp;&amp;nbsp;" style="edgeLabel;resizable=0;html=1;align=left;verticalAlign=bottom;" parent="rhkAmZm-7bZTZPfbM_GP-26" connectable="0" vertex="1">
          <mxGeometry x="-1" relative="1" as="geometry">
            <mxPoint x="4" y="19" as="offset" />
          </mxGeometry>
        </mxCell>
        <mxCell id="rhkAmZm-7bZTZPfbM_GP-28" value="*" style="edgeLabel;resizable=0;html=1;align=right;verticalAlign=bottom;" parent="rhkAmZm-7bZTZPfbM_GP-26" connectable="0" vertex="1">
          <mxGeometry x="1" relative="1" as="geometry">
            <mxPoint x="-5" as="offset" />
          </mxGeometry>
        </mxCell>
        <mxCell id="zHmY9NEWCWzjRzKXrB1o-14" style="edgeStyle=orthogonalEdgeStyle;rounded=0;orthogonalLoop=1;jettySize=auto;html=1;startArrow=none;startFill=0;endArrow=none;endFill=0;" parent="1" source="zHmY9NEWCWzjRzKXrB1o-1" target="zHmY9NEWCWzjRzKXrB1o-7" edge="1">
          <mxGeometry relative="1" as="geometry" />
        </mxCell>
        <mxCell id="zHmY9NEWCWzjRzKXrB1o-1" value="Race" style="swimlane;fontStyle=0;childLayout=stackLayout;horizontal=1;startSize=20;horizontalStack=0;resizeParent=1;resizeParentMax=0;resizeLast=0;collapsible=1;marginBottom=0;fillColor=#f5f5f5;fontColor=#333333;strokeColor=#666666;" parent="1" vertex="1">
          <mxGeometry x="230" y="-888" width="120" height="98" as="geometry" />
        </mxCell>
        <mxCell id="zHmY9NEWCWzjRzKXrB1o-2" value="+ name" style="text;strokeColor=none;fillColor=none;align=left;verticalAlign=top;spacingLeft=4;spacingRight=4;overflow=hidden;rotatable=0;points=[[0,0.5],[1,0.5]];portConstraint=eastwest;" parent="zHmY9NEWCWzjRzKXrB1o-1" vertex="1">
          <mxGeometry y="20" width="120" height="26" as="geometry" />
        </mxCell>
        <mxCell id="zHmY9NEWCWzjRzKXrB1o-4" value="+ date" style="text;strokeColor=none;fillColor=none;align=left;verticalAlign=top;spacingLeft=4;spacingRight=4;overflow=hidden;rotatable=0;points=[[0,0.5],[1,0.5]];portConstraint=eastwest;" parent="zHmY9NEWCWzjRzKXrB1o-1" vertex="1">
          <mxGeometry y="46" width="120" height="26" as="geometry" />
        </mxCell>
        <mxCell id="zHmY9NEWCWzjRzKXrB1o-5" value="+ nLaps" style="text;strokeColor=none;fillColor=none;align=left;verticalAlign=top;spacingLeft=4;spacingRight=4;overflow=hidden;rotatable=0;points=[[0,0.5],[1,0.5]];portConstraint=eastwest;" parent="zHmY9NEWCWzjRzKXrB1o-1" vertex="1">
          <mxGeometry y="72" width="120" height="26" as="geometry" />
        </mxCell>
        <mxCell id="zHmY9NEWCWzjRzKXrB1o-7" value="Circuit" style="swimlane;fontStyle=0;childLayout=stackLayout;horizontal=1;startSize=20;horizontalStack=0;resizeParent=1;resizeParentMax=0;resizeLast=0;collapsible=1;marginBottom=0;fillColor=#f5f5f5;fontColor=#333333;strokeColor=#666666;" parent="1" vertex="1">
          <mxGeometry x="40" y="-914" width="120" height="150" as="geometry" />
        </mxCell>
        <mxCell id="zHmY9NEWCWzjRzKXrB1o-8" value="+ name" style="text;strokeColor=none;fillColor=none;align=left;verticalAlign=top;spacingLeft=4;spacingRight=4;overflow=hidden;rotatable=0;points=[[0,0.5],[1,0.5]];portConstraint=eastwest;" parent="zHmY9NEWCWzjRzKXrB1o-7" vertex="1">
          <mxGeometry y="20" width="120" height="26" as="geometry" />
        </mxCell>
        <mxCell id="zHmY9NEWCWzjRzKXrB1o-9" value="+ location" style="text;strokeColor=none;fillColor=none;align=left;verticalAlign=top;spacingLeft=4;spacingRight=4;overflow=hidden;rotatable=0;points=[[0,0.5],[1,0.5]];portConstraint=eastwest;" parent="zHmY9NEWCWzjRzKXrB1o-7" vertex="1">
          <mxGeometry y="46" width="120" height="26" as="geometry" />
        </mxCell>
        <mxCell id="zHmY9NEWCWzjRzKXrB1o-12" value="+ country" style="text;strokeColor=none;fillColor=none;align=left;verticalAlign=top;spacingLeft=4;spacingRight=4;overflow=hidden;rotatable=0;points=[[0,0.5],[1,0.5]];portConstraint=eastwest;" parent="zHmY9NEWCWzjRzKXrB1o-7" vertex="1">
          <mxGeometry y="72" width="120" height="26" as="geometry" />
        </mxCell>
        <mxCell id="zHmY9NEWCWzjRzKXrB1o-10" value="+ nLaps" style="text;strokeColor=none;fillColor=none;align=left;verticalAlign=top;spacingLeft=4;spacingRight=4;overflow=hidden;rotatable=0;points=[[0,0.5],[1,0.5]];portConstraint=eastwest;" parent="zHmY9NEWCWzjRzKXrB1o-7" vertex="1">
          <mxGeometry y="98" width="120" height="26" as="geometry" />
        </mxCell>
        <mxCell id="zHmY9NEWCWzjRzKXrB1o-11" value="+ perimeter" style="text;strokeColor=none;fillColor=none;align=left;verticalAlign=top;spacingLeft=4;spacingRight=4;overflow=hidden;rotatable=0;points=[[0,0.5],[1,0.5]];portConstraint=eastwest;" parent="zHmY9NEWCWzjRzKXrB1o-7" vertex="1">
          <mxGeometry y="124" width="120" height="26" as="geometry" />
        </mxCell>
        <mxCell id="zHmY9NEWCWzjRzKXrB1o-16" value="1" style="text;html=1;align=center;verticalAlign=middle;resizable=0;points=[];autosize=1;strokeColor=none;fillColor=none;" parent="1" vertex="1">
          <mxGeometry x="155" y="-863" width="30" height="30" as="geometry" />
        </mxCell>
        <mxCell id="zHmY9NEWCWzjRzKXrB1o-17" value="0..2" style="text;html=1;align=center;verticalAlign=middle;resizable=0;points=[];autosize=1;strokeColor=none;fillColor=none;" parent="1" vertex="1">
          <mxGeometry x="199" y="-839" width="40" height="30" as="geometry" />
        </mxCell>
        <mxCell id="zHmY9NEWCWzjRzKXrB1o-22" style="edgeStyle=orthogonalEdgeStyle;rounded=0;orthogonalLoop=1;jettySize=auto;html=1;startArrow=none;startFill=0;endArrow=none;endFill=0;dashed=1;" parent="1" source="zHmY9NEWCWzjRzKXrB1o-18" edge="1">
          <mxGeometry relative="1" as="geometry">
            <mxPoint x="440" y="-800" as="targetPoint" />
            <mxPoint x="440" y="-724" as="sourcePoint" />
          </mxGeometry>
        </mxCell>
        <mxCell id="zHmY9NEWCWzjRzKXrB1o-18" value="DroppedOut" style="swimlane;fontStyle=0;childLayout=stackLayout;horizontal=1;startSize=20;horizontalStack=0;resizeParent=1;resizeParentMax=0;resizeLast=0;collapsible=1;marginBottom=0;fillColor=#f5f5f5;fontColor=#333333;strokeColor=#666666;" parent="1" vertex="1">
          <mxGeometry x="380" y="-700" width="120" height="72" as="geometry" />
        </mxCell>
        <mxCell id="zHmY9NEWCWzjRzKXrB1o-20" value="+ nLaps" style="text;strokeColor=none;fillColor=none;align=left;verticalAlign=top;spacingLeft=4;spacingRight=4;overflow=hidden;rotatable=0;points=[[0,0.5],[1,0.5]];portConstraint=eastwest;" parent="zHmY9NEWCWzjRzKXrB1o-18" vertex="1">
          <mxGeometry y="20" width="120" height="26" as="geometry" />
        </mxCell>
        <mxCell id="zHmY9NEWCWzjRzKXrB1o-19" value="+ reason" style="text;strokeColor=none;fillColor=none;align=left;verticalAlign=top;spacingLeft=4;spacingRight=4;overflow=hidden;rotatable=0;points=[[0,0.5],[1,0.5]];portConstraint=eastwest;" parent="zHmY9NEWCWzjRzKXrB1o-18" vertex="1">
          <mxGeometry y="46" width="120" height="26" as="geometry" />
        </mxCell>
        <mxCell id="zHmY9NEWCWzjRzKXrB1o-30" style="edgeStyle=orthogonalEdgeStyle;rounded=0;orthogonalLoop=1;jettySize=auto;html=1;dashed=1;startArrow=none;startFill=0;endArrow=none;endFill=0;" parent="1" source="zHmY9NEWCWzjRzKXrB1o-27" edge="1">
          <mxGeometry relative="1" as="geometry">
            <mxPoint x="400" y="-840" as="targetPoint" />
          </mxGeometry>
        </mxCell>
        <mxCell id="zHmY9NEWCWzjRzKXrB1o-27" value="Participation" style="swimlane;fontStyle=0;childLayout=stackLayout;horizontal=1;startSize=20;horizontalStack=0;resizeParent=1;resizeParentMax=0;resizeLast=0;collapsible=1;marginBottom=0;fillColor=#f5f5f5;fontColor=#333333;strokeColor=#666666;" parent="1" vertex="1">
          <mxGeometry x="340" y="-997" width="120" height="72" as="geometry" />
        </mxCell>
        <mxCell id="zHmY9NEWCWzjRzKXrB1o-28" value="+ startingGrid" style="text;strokeColor=none;fillColor=none;align=left;verticalAlign=top;spacingLeft=4;spacingRight=4;overflow=hidden;rotatable=0;points=[[0,0.5],[1,0.5]];portConstraint=eastwest;" parent="zHmY9NEWCWzjRzKXrB1o-27" vertex="1">
          <mxGeometry y="20" width="120" height="26" as="geometry" />
        </mxCell>
        <mxCell id="zHmY9NEWCWzjRzKXrB1o-29" value="+ positionFinal" style="text;strokeColor=none;fillColor=none;align=left;verticalAlign=top;spacingLeft=4;spacingRight=4;overflow=hidden;rotatable=0;points=[[0,0.5],[1,0.5]];portConstraint=eastwest;" parent="zHmY9NEWCWzjRzKXrB1o-27" vertex="1">
          <mxGeometry y="46" width="120" height="26" as="geometry" />
        </mxCell>
        <mxCell id="zHmY9NEWCWzjRzKXrB1o-31" style="edgeStyle=orthogonalEdgeStyle;rounded=0;orthogonalLoop=1;jettySize=auto;html=1;startArrow=none;startFill=0;endArrow=none;endFill=0;" parent="1" source="rhkAmZm-7bZTZPfbM_GP-16" target="zHmY9NEWCWzjRzKXrB1o-1" edge="1">
          <mxGeometry relative="1" as="geometry">
            <mxPoint x="490" y="-800" as="sourcePoint" />
            <mxPoint x="350" y="-800" as="targetPoint" />
            <Array as="points">
              <mxPoint x="420" y="-800" />
              <mxPoint x="420" y="-800" />
            </Array>
          </mxGeometry>
        </mxCell>
        <mxCell id="zHmY9NEWCWzjRzKXrB1o-32" value="*" style="text;html=1;align=center;verticalAlign=middle;resizable=0;points=[];autosize=1;strokeColor=none;fillColor=none;" parent="1" vertex="1">
          <mxGeometry x="345" y="-865" width="30" height="30" as="geometry" />
        </mxCell>
        <mxCell id="zHmY9NEWCWzjRzKXrB1o-34" value="*" style="text;html=1;align=center;verticalAlign=middle;resizable=0;points=[];autosize=1;strokeColor=none;fillColor=none;" parent="1" vertex="1">
          <mxGeometry x="345" y="-805" width="30" height="30" as="geometry" />
        </mxCell>
        <mxCell id="zHmY9NEWCWzjRzKXrB1o-35" value="*" style="text;html=1;align=center;verticalAlign=middle;resizable=0;points=[];autosize=1;strokeColor=none;fillColor=none;" parent="1" vertex="1">
          <mxGeometry x="465" y="-795" width="30" height="30" as="geometry" />
        </mxCell>
        <mxCell id="zHmY9NEWCWzjRzKXrB1o-36" value="x&lt;br&gt;&lt;br&gt;&lt;br&gt;x&lt;br&gt;&lt;br&gt;&lt;br&gt;&lt;br&gt;x" style="ellipse;whiteSpace=wrap;html=1;" parent="1" vertex="1">
          <mxGeometry x="80" y="-410" width="70" height="170" as="geometry" />
        </mxCell>
        <mxCell id="zHmY9NEWCWzjRzKXrB1o-38" value="x&lt;br&gt;&lt;br&gt;&lt;br&gt;x&lt;br&gt;&lt;br&gt;&lt;br&gt;x&lt;br&gt;&lt;br&gt;&lt;br&gt;x" style="ellipse;whiteSpace=wrap;html=1;" parent="1" vertex="1">
          <mxGeometry x="210" y="-410" width="70" height="170" as="geometry" />
        </mxCell>
        <mxCell id="zHmY9NEWCWzjRzKXrB1o-39" value="PILOT" style="text;html=1;align=center;verticalAlign=middle;resizable=0;points=[];autosize=1;strokeColor=none;fillColor=none;" parent="1" vertex="1">
          <mxGeometry x="80" y="-445" width="60" height="30" as="geometry" />
        </mxCell>
        <mxCell id="zHmY9NEWCWzjRzKXrB1o-40" value="RUN" style="text;html=1;align=center;verticalAlign=middle;resizable=0;points=[];autosize=1;strokeColor=none;fillColor=none;" parent="1" vertex="1">
          <mxGeometry x="215" y="-445" width="50" height="30" as="geometry" />
        </mxCell>
        <mxCell id="l7Md9P8MNUkDWdsbukZy-1" value="" style="html=1;shadow=0;dashed=0;align=center;verticalAlign=middle;shape=mxgraph.arrows2.arrow;dy=0;dx=10;notch=0;rotation=-10;" parent="1" vertex="1">
          <mxGeometry x="124" y="-387" width="110" height="10" as="geometry" />
        </mxCell>
        <mxCell id="l7Md9P8MNUkDWdsbukZy-2" value="" style="html=1;shadow=0;dashed=0;align=center;verticalAlign=middle;shape=mxgraph.arrows2.arrow;dy=0;dx=10;notch=0;rotation=30;" parent="1" vertex="1">
          <mxGeometry x="112.82" y="-301.58" width="127.67" height="10" as="geometry" />
        </mxCell>
        <mxCell id="l7Md9P8MNUkDWdsbukZy-3" value="" style="html=1;shadow=0;dashed=0;align=center;verticalAlign=middle;shape=mxgraph.arrows2.arrow;dy=0;dx=10;notch=0;rotation=-10;" parent="1" vertex="1">
          <mxGeometry x="124" y="-291.58" width="110" height="10" as="geometry" />
        </mxCell>
        <mxCell id="l7Md9P8MNUkDWdsbukZy-4" value="" style="html=1;shadow=0;dashed=0;align=center;verticalAlign=middle;shape=mxgraph.arrows2.arrow;dy=0;dx=10;notch=0;rotation=0;" parent="1" vertex="1">
          <mxGeometry x="124" y="-270" width="110" height="10" as="geometry" />
        </mxCell>
      </root>
    </mxGraphModel>
  </diagram>
  <diagram id="h98K9LVr6ZxRA0lzFS2g" name="F01_ex2">
    <mxGraphModel dx="688" dy="1794" grid="1" gridSize="10" guides="1" tooltips="1" connect="1" arrows="1" fold="1" page="1" pageScale="1" pageWidth="827" pageHeight="1169" math="0" shadow="0">
      <root>
        <mxCell id="0" />
        <mxCell id="1" parent="0" />
        <mxCell id="3ZpnXTzKPlHOUlE1Rrxn-1" value="Client" style="swimlane;fontStyle=0;childLayout=stackLayout;horizontal=1;startSize=20;horizontalStack=0;resizeParent=1;resizeParentMax=0;resizeLast=0;collapsible=1;marginBottom=0;fillColor=#f5f5f5;fontColor=#333333;strokeColor=#666666;" vertex="1" parent="1">
          <mxGeometry x="35" y="-1101.5" width="120" height="124" as="geometry">
            <mxRectangle x="35" y="-1101.5" width="70" height="30" as="alternateBounds" />
          </mxGeometry>
        </mxCell>
        <mxCell id="3ZpnXTzKPlHOUlE1Rrxn-2" value="+ name" style="text;strokeColor=none;fillColor=none;align=left;verticalAlign=top;spacingLeft=4;spacingRight=4;overflow=hidden;rotatable=0;points=[[0,0.5],[1,0.5]];portConstraint=eastwest;" vertex="1" parent="3ZpnXTzKPlHOUlE1Rrxn-1">
          <mxGeometry y="20" width="120" height="26" as="geometry" />
        </mxCell>
        <mxCell id="3ZpnXTzKPlHOUlE1Rrxn-3" value="+ address" style="text;strokeColor=none;fillColor=none;align=left;verticalAlign=top;spacingLeft=4;spacingRight=4;overflow=hidden;rotatable=0;points=[[0,0.5],[1,0.5]];portConstraint=eastwest;" vertex="1" parent="3ZpnXTzKPlHOUlE1Rrxn-1">
          <mxGeometry y="46" width="120" height="26" as="geometry" />
        </mxCell>
        <mxCell id="3ZpnXTzKPlHOUlE1Rrxn-4" value="+ nif" style="text;strokeColor=none;fillColor=none;align=left;verticalAlign=top;spacingLeft=4;spacingRight=4;overflow=hidden;rotatable=0;points=[[0,0.5],[1,0.5]];portConstraint=eastwest;" vertex="1" parent="3ZpnXTzKPlHOUlE1Rrxn-1">
          <mxGeometry y="72" width="120" height="26" as="geometry" />
        </mxCell>
        <mxCell id="3ZpnXTzKPlHOUlE1Rrxn-49" value="+ location" style="text;strokeColor=none;fillColor=none;align=left;verticalAlign=top;spacingLeft=4;spacingRight=4;overflow=hidden;rotatable=0;points=[[0,0.5],[1,0.5]];portConstraint=eastwest;" vertex="1" parent="3ZpnXTzKPlHOUlE1Rrxn-1">
          <mxGeometry y="98" width="120" height="26" as="geometry" />
        </mxCell>
        <mxCell id="3ZpnXTzKPlHOUlE1Rrxn-5" value="Garden" style="swimlane;fontStyle=0;childLayout=stackLayout;horizontal=1;startSize=17;fillColor=#f5f5f5;horizontalStack=0;resizeParent=1;resizeParentMax=0;resizeLast=0;collapsible=1;marginBottom=0;strokeColor=#666666;fontColor=#333333;" vertex="1" parent="1">
          <mxGeometry x="440" y="-1099.5" width="120" height="121" as="geometry" />
        </mxCell>
        <mxCell id="3ZpnXTzKPlHOUlE1Rrxn-6" value="+ name" style="text;strokeColor=none;fillColor=none;align=left;verticalAlign=top;spacingLeft=4;spacingRight=4;overflow=hidden;rotatable=0;points=[[0,0.5],[1,0.5]];portConstraint=eastwest;" vertex="1" parent="3ZpnXTzKPlHOUlE1Rrxn-5">
          <mxGeometry y="17" width="120" height="26" as="geometry" />
        </mxCell>
        <mxCell id="3ZpnXTzKPlHOUlE1Rrxn-7" value="+ location" style="text;strokeColor=none;fillColor=none;align=left;verticalAlign=top;spacingLeft=4;spacingRight=4;overflow=hidden;rotatable=0;points=[[0,0.5],[1,0.5]];portConstraint=eastwest;" vertex="1" parent="3ZpnXTzKPlHOUlE1Rrxn-5">
          <mxGeometry y="43" width="120" height="26" as="geometry" />
        </mxCell>
        <mxCell id="3ZpnXTzKPlHOUlE1Rrxn-8" value="+ address" style="text;strokeColor=none;fillColor=none;align=left;verticalAlign=top;spacingLeft=4;spacingRight=4;overflow=hidden;rotatable=0;points=[[0,0.5],[1,0.5]];portConstraint=eastwest;" vertex="1" parent="3ZpnXTzKPlHOUlE1Rrxn-5">
          <mxGeometry y="69" width="120" height="26" as="geometry" />
        </mxCell>
        <mxCell id="3ZpnXTzKPlHOUlE1Rrxn-9" value="+ area" style="text;strokeColor=none;fillColor=none;align=left;verticalAlign=top;spacingLeft=4;spacingRight=4;overflow=hidden;rotatable=0;points=[[0,0.5],[1,0.5]];portConstraint=eastwest;" vertex="1" parent="3ZpnXTzKPlHOUlE1Rrxn-5">
          <mxGeometry y="95" width="120" height="26" as="geometry" />
        </mxCell>
        <mxCell id="3ZpnXTzKPlHOUlE1Rrxn-10" value="" style="endArrow=none;html=1;edgeStyle=orthogonalEdgeStyle;rounded=0;" edge="1" parent="1" source="3ZpnXTzKPlHOUlE1Rrxn-1" target="3ZpnXTzKPlHOUlE1Rrxn-5">
          <mxGeometry relative="1" as="geometry">
            <mxPoint x="100" y="-820" as="sourcePoint" />
            <mxPoint x="260" y="-820" as="targetPoint" />
            <Array as="points" />
          </mxGeometry>
        </mxCell>
        <mxCell id="3ZpnXTzKPlHOUlE1Rrxn-11" value="*" style="edgeLabel;resizable=0;html=1;align=left;verticalAlign=bottom;" connectable="0" vertex="1" parent="3ZpnXTzKPlHOUlE1Rrxn-10">
          <mxGeometry x="-1" relative="1" as="geometry">
            <mxPoint x="3" as="offset" />
          </mxGeometry>
        </mxCell>
        <mxCell id="3ZpnXTzKPlHOUlE1Rrxn-12" value="*" style="edgeLabel;resizable=0;html=1;align=right;verticalAlign=bottom;" connectable="0" vertex="1" parent="3ZpnXTzKPlHOUlE1Rrxn-10">
          <mxGeometry x="1" relative="1" as="geometry">
            <mxPoint x="-4" y="18" as="offset" />
          </mxGeometry>
        </mxCell>
        <mxCell id="3ZpnXTzKPlHOUlE1Rrxn-21" value="" style="endArrow=none;html=1;edgeStyle=orthogonalEdgeStyle;rounded=0;entryX=0.5;entryY=0;entryDx=0;entryDy=0;" edge="1" parent="1" source="3ZpnXTzKPlHOUlE1Rrxn-5" target="3ZpnXTzKPlHOUlE1Rrxn-25">
          <mxGeometry relative="1" as="geometry">
            <mxPoint x="170" y="-1050" as="sourcePoint" />
            <mxPoint x="500" y="-914" as="targetPoint" />
            <Array as="points" />
          </mxGeometry>
        </mxCell>
        <mxCell id="3ZpnXTzKPlHOUlE1Rrxn-22" value="*" style="edgeLabel;resizable=0;html=1;align=left;verticalAlign=bottom;" connectable="0" vertex="1" parent="3ZpnXTzKPlHOUlE1Rrxn-21">
          <mxGeometry x="-1" relative="1" as="geometry">
            <mxPoint x="4" y="19" as="offset" />
          </mxGeometry>
        </mxCell>
        <mxCell id="3ZpnXTzKPlHOUlE1Rrxn-23" value="*" style="edgeLabel;resizable=0;html=1;align=right;verticalAlign=bottom;" connectable="0" vertex="1" parent="3ZpnXTzKPlHOUlE1Rrxn-21">
          <mxGeometry x="1" relative="1" as="geometry">
            <mxPoint x="-5" as="offset" />
          </mxGeometry>
        </mxCell>
        <mxCell id="3ZpnXTzKPlHOUlE1Rrxn-24" style="edgeStyle=orthogonalEdgeStyle;rounded=0;orthogonalLoop=1;jettySize=auto;html=1;startArrow=none;startFill=0;endArrow=none;endFill=0;" edge="1" parent="1" source="3ZpnXTzKPlHOUlE1Rrxn-25" target="3ZpnXTzKPlHOUlE1Rrxn-29">
          <mxGeometry relative="1" as="geometry" />
        </mxCell>
        <mxCell id="ScHsuEsnrsMUpVX1bvB_-8" value="*" style="edgeLabel;html=1;align=center;verticalAlign=middle;resizable=0;points=[];fontSize=14;" vertex="1" connectable="0" parent="3ZpnXTzKPlHOUlE1Rrxn-24">
          <mxGeometry x="0.9099" relative="1" as="geometry">
            <mxPoint x="1" y="-12" as="offset" />
          </mxGeometry>
        </mxCell>
        <mxCell id="ScHsuEsnrsMUpVX1bvB_-9" value="*" style="edgeLabel;html=1;align=center;verticalAlign=middle;resizable=0;points=[];fontSize=14;" vertex="1" connectable="0" parent="3ZpnXTzKPlHOUlE1Rrxn-24">
          <mxGeometry x="-0.858" relative="1" as="geometry">
            <mxPoint x="10" y="10" as="offset" />
          </mxGeometry>
        </mxCell>
        <mxCell id="3ZpnXTzKPlHOUlE1Rrxn-25" value="Plant" style="swimlane;fontStyle=0;childLayout=stackLayout;horizontal=1;startSize=20;horizontalStack=0;resizeParent=1;resizeParentMax=0;resizeLast=0;collapsible=1;marginBottom=0;fillColor=#f5f5f5;fontColor=#333333;strokeColor=#666666;" vertex="1" parent="1">
          <mxGeometry x="440" y="-914" width="120" height="72" as="geometry" />
        </mxCell>
        <mxCell id="3ZpnXTzKPlHOUlE1Rrxn-26" value="+ name" style="text;strokeColor=none;fillColor=none;align=left;verticalAlign=top;spacingLeft=4;spacingRight=4;overflow=hidden;rotatable=0;points=[[0,0.5],[1,0.5]];portConstraint=eastwest;" vertex="1" parent="3ZpnXTzKPlHOUlE1Rrxn-25">
          <mxGeometry y="20" width="120" height="26" as="geometry" />
        </mxCell>
        <mxCell id="3ZpnXTzKPlHOUlE1Rrxn-27" value="+ scientificName" style="text;strokeColor=none;fillColor=none;align=left;verticalAlign=top;spacingLeft=4;spacingRight=4;overflow=hidden;rotatable=0;points=[[0,0.5],[1,0.5]];portConstraint=eastwest;" vertex="1" parent="3ZpnXTzKPlHOUlE1Rrxn-25">
          <mxGeometry y="46" width="120" height="26" as="geometry" />
        </mxCell>
        <mxCell id="ScHsuEsnrsMUpVX1bvB_-13" style="edgeStyle=orthogonalEdgeStyle;rounded=0;orthogonalLoop=1;jettySize=auto;html=1;fontSize=14;startArrow=none;startFill=0;endArrow=none;endFill=0;" edge="1" parent="1" source="3ZpnXTzKPlHOUlE1Rrxn-29" target="ScHsuEsnrsMUpVX1bvB_-11">
          <mxGeometry relative="1" as="geometry" />
        </mxCell>
        <mxCell id="3ZpnXTzKPlHOUlE1Rrxn-29" value="Pests" style="swimlane;fontStyle=0;childLayout=stackLayout;horizontal=1;startSize=20;horizontalStack=0;resizeParent=1;resizeParentMax=0;resizeLast=0;collapsible=1;marginBottom=0;fillColor=#f5f5f5;fontColor=#333333;strokeColor=#666666;" vertex="1" parent="1">
          <mxGeometry x="200" y="-901" width="120" height="46" as="geometry" />
        </mxCell>
        <mxCell id="3ZpnXTzKPlHOUlE1Rrxn-30" value="+ name" style="text;strokeColor=none;fillColor=none;align=left;verticalAlign=top;spacingLeft=4;spacingRight=4;overflow=hidden;rotatable=0;points=[[0,0.5],[1,0.5]];portConstraint=eastwest;" vertex="1" parent="3ZpnXTzKPlHOUlE1Rrxn-29">
          <mxGeometry y="20" width="120" height="26" as="geometry" />
        </mxCell>
        <mxCell id="3ZpnXTzKPlHOUlE1Rrxn-53" style="edgeStyle=orthogonalEdgeStyle;rounded=0;orthogonalLoop=1;jettySize=auto;html=1;dashed=1;fontSize=14;startArrow=none;startFill=0;endArrow=none;endFill=0;" edge="1" parent="1" source="3ZpnXTzKPlHOUlE1Rrxn-50">
          <mxGeometry relative="1" as="geometry">
            <mxPoint x="310" y="-1040" as="targetPoint" />
          </mxGeometry>
        </mxCell>
        <mxCell id="3ZpnXTzKPlHOUlE1Rrxn-50" value="" style="swimlane;fontStyle=0;childLayout=stackLayout;horizontal=1;startSize=20;horizontalStack=0;resizeParent=1;resizeParentMax=0;resizeLast=0;collapsible=1;marginBottom=0;fillColor=#f5f5f5;fontColor=#333333;strokeColor=#666666;" vertex="1" parent="1">
          <mxGeometry x="250" y="-1160" width="120" height="46" as="geometry">
            <mxRectangle x="250" y="-1160" width="50" height="40" as="alternateBounds" />
          </mxGeometry>
        </mxCell>
        <mxCell id="3ZpnXTzKPlHOUlE1Rrxn-51" value="+ owner" style="text;strokeColor=none;fillColor=none;align=left;verticalAlign=top;spacingLeft=4;spacingRight=4;overflow=hidden;rotatable=0;points=[[0,0.5],[1,0.5]];portConstraint=eastwest;" vertex="1" parent="3ZpnXTzKPlHOUlE1Rrxn-50">
          <mxGeometry y="20" width="120" height="26" as="geometry" />
        </mxCell>
        <mxCell id="ScHsuEsnrsMUpVX1bvB_-1" value="class of association has different name conforme the association" style="text;html=1;strokeColor=none;fillColor=none;align=center;verticalAlign=middle;whiteSpace=wrap;rounded=0;" vertex="1" parent="1">
          <mxGeometry x="370" y="-1169" width="170" height="60" as="geometry" />
        </mxCell>
        <mxCell id="ScHsuEsnrsMUpVX1bvB_-5" style="edgeStyle=orthogonalEdgeStyle;rounded=0;orthogonalLoop=1;jettySize=auto;html=1;dashed=1;fontSize=14;startArrow=none;startFill=0;endArrow=none;endFill=0;" edge="1" parent="1" source="ScHsuEsnrsMUpVX1bvB_-3">
          <mxGeometry relative="1" as="geometry">
            <mxPoint x="500" y="-947" as="targetPoint" />
          </mxGeometry>
        </mxCell>
        <mxCell id="ScHsuEsnrsMUpVX1bvB_-3" value="" style="swimlane;fontStyle=0;childLayout=stackLayout;horizontal=1;startSize=20;horizontalStack=0;resizeParent=1;resizeParentMax=0;resizeLast=0;collapsible=1;marginBottom=0;fillColor=#f5f5f5;fontColor=#333333;strokeColor=#666666;" vertex="1" parent="1">
          <mxGeometry x="630" y="-983" width="120" height="72" as="geometry">
            <mxRectangle x="250" y="-1160" width="50" height="40" as="alternateBounds" />
          </mxGeometry>
        </mxCell>
        <mxCell id="ScHsuEsnrsMUpVX1bvB_-4" value="+ area" style="text;strokeColor=none;fillColor=none;align=left;verticalAlign=top;spacingLeft=4;spacingRight=4;overflow=hidden;rotatable=0;points=[[0,0.5],[1,0.5]];portConstraint=eastwest;" vertex="1" parent="ScHsuEsnrsMUpVX1bvB_-3">
          <mxGeometry y="20" width="120" height="26" as="geometry" />
        </mxCell>
        <mxCell id="ScHsuEsnrsMUpVX1bvB_-6" value="+ nPlants" style="text;strokeColor=none;fillColor=none;align=left;verticalAlign=top;spacingLeft=4;spacingRight=4;overflow=hidden;rotatable=0;points=[[0,0.5],[1,0.5]];portConstraint=eastwest;" vertex="1" parent="ScHsuEsnrsMUpVX1bvB_-3">
          <mxGeometry y="46" width="120" height="26" as="geometry" />
        </mxCell>
        <mxCell id="ScHsuEsnrsMUpVX1bvB_-11" value="" style="rhombus;whiteSpace=wrap;html=1;strokeWidth=1;fontSize=14;" vertex="1" parent="1">
          <mxGeometry x="220" y="-803" width="80" height="80" as="geometry" />
        </mxCell>
        <mxCell id="ScHsuEsnrsMUpVX1bvB_-16" style="edgeStyle=orthogonalEdgeStyle;rounded=0;orthogonalLoop=1;jettySize=auto;html=1;fontSize=14;startArrow=none;startFill=0;endArrow=none;endFill=0;" edge="1" parent="1" source="ScHsuEsnrsMUpVX1bvB_-14" target="ScHsuEsnrsMUpVX1bvB_-11">
          <mxGeometry relative="1" as="geometry" />
        </mxCell>
        <mxCell id="ScHsuEsnrsMUpVX1bvB_-14" value="Treatment" style="swimlane;fontStyle=0;childLayout=stackLayout;horizontal=1;startSize=20;horizontalStack=0;resizeParent=1;resizeParentMax=0;resizeLast=0;collapsible=1;marginBottom=0;fillColor=#f5f5f5;fontColor=#333333;strokeColor=#666666;" vertex="1" parent="1">
          <mxGeometry x="354" y="-786" width="120" height="46" as="geometry" />
        </mxCell>
        <mxCell id="ScHsuEsnrsMUpVX1bvB_-15" value="+ name" style="text;strokeColor=none;fillColor=none;align=left;verticalAlign=top;spacingLeft=4;spacingRight=4;overflow=hidden;rotatable=0;points=[[0,0.5],[1,0.5]];portConstraint=eastwest;" vertex="1" parent="ScHsuEsnrsMUpVX1bvB_-14">
          <mxGeometry y="20" width="120" height="26" as="geometry" />
        </mxCell>
        <mxCell id="ScHsuEsnrsMUpVX1bvB_-19" style="edgeStyle=orthogonalEdgeStyle;rounded=0;orthogonalLoop=1;jettySize=auto;html=1;fontSize=14;startArrow=none;startFill=0;endArrow=none;endFill=0;" edge="1" parent="1" source="ScHsuEsnrsMUpVX1bvB_-17" target="ScHsuEsnrsMUpVX1bvB_-11">
          <mxGeometry relative="1" as="geometry" />
        </mxCell>
        <mxCell id="ScHsuEsnrsMUpVX1bvB_-17" value="Season" style="swimlane;fontStyle=0;childLayout=stackLayout;horizontal=1;startSize=20;horizontalStack=0;resizeParent=1;resizeParentMax=0;resizeLast=0;collapsible=1;marginBottom=0;fillColor=#f5f5f5;fontColor=#333333;strokeColor=#666666;" vertex="1" parent="1">
          <mxGeometry x="40" y="-786" width="120" height="72" as="geometry" />
        </mxCell>
        <mxCell id="ScHsuEsnrsMUpVX1bvB_-18" value="+ startDate" style="text;strokeColor=none;fillColor=none;align=left;verticalAlign=top;spacingLeft=4;spacingRight=4;overflow=hidden;rotatable=0;points=[[0,0.5],[1,0.5]];portConstraint=eastwest;" vertex="1" parent="ScHsuEsnrsMUpVX1bvB_-17">
          <mxGeometry y="20" width="120" height="26" as="geometry" />
        </mxCell>
        <mxCell id="ScHsuEsnrsMUpVX1bvB_-20" value="+ endName" style="text;strokeColor=none;fillColor=none;align=left;verticalAlign=top;spacingLeft=4;spacingRight=4;overflow=hidden;rotatable=0;points=[[0,0.5],[1,0.5]];portConstraint=eastwest;" vertex="1" parent="ScHsuEsnrsMUpVX1bvB_-17">
          <mxGeometry y="46" width="120" height="26" as="geometry" />
        </mxCell>
      </root>
    </mxGraphModel>
  </diagram>
  <diagram id="TnVBhwZx_VKvvBogZYNg" name="F01_ex3">
    <mxGraphModel dx="688" dy="1794" grid="1" gridSize="10" guides="1" tooltips="1" connect="1" arrows="1" fold="1" page="1" pageScale="1" pageWidth="827" pageHeight="1169" math="0" shadow="0">
      <root>
        <mxCell id="0" />
        <mxCell id="1" parent="0" />
        <mxCell id="taCera-gn2vVVMauXgla-1" value="Client" style="swimlane;fontStyle=0;childLayout=stackLayout;horizontal=1;startSize=20;horizontalStack=0;resizeParent=1;resizeParentMax=0;resizeLast=0;collapsible=1;marginBottom=0;fillColor=#f5f5f5;fontColor=#333333;strokeColor=#666666;" vertex="1" parent="1">
          <mxGeometry x="40" y="-1120" width="120" height="124" as="geometry">
            <mxRectangle x="35" y="-1101.5" width="70" height="30" as="alternateBounds" />
          </mxGeometry>
        </mxCell>
        <mxCell id="taCera-gn2vVVMauXgla-2" value="+ name" style="text;strokeColor=none;fillColor=none;align=left;verticalAlign=top;spacingLeft=4;spacingRight=4;overflow=hidden;rotatable=0;points=[[0,0.5],[1,0.5]];portConstraint=eastwest;" vertex="1" parent="taCera-gn2vVVMauXgla-1">
          <mxGeometry y="20" width="120" height="26" as="geometry" />
        </mxCell>
        <mxCell id="taCera-gn2vVVMauXgla-3" value="+ address" style="text;strokeColor=none;fillColor=none;align=left;verticalAlign=top;spacingLeft=4;spacingRight=4;overflow=hidden;rotatable=0;points=[[0,0.5],[1,0.5]];portConstraint=eastwest;" vertex="1" parent="taCera-gn2vVVMauXgla-1">
          <mxGeometry y="46" width="120" height="26" as="geometry" />
        </mxCell>
        <mxCell id="taCera-gn2vVVMauXgla-4" value="+ title" style="text;strokeColor=none;fillColor=none;align=left;verticalAlign=top;spacingLeft=4;spacingRight=4;overflow=hidden;rotatable=0;points=[[0,0.5],[1,0.5]];portConstraint=eastwest;" vertex="1" parent="taCera-gn2vVVMauXgla-1">
          <mxGeometry y="72" width="120" height="26" as="geometry" />
        </mxCell>
        <mxCell id="taCera-gn2vVVMauXgla-5" value="+ phone" style="text;strokeColor=none;fillColor=none;align=left;verticalAlign=top;spacingLeft=4;spacingRight=4;overflow=hidden;rotatable=0;points=[[0,0.5],[1,0.5]];portConstraint=eastwest;" vertex="1" parent="taCera-gn2vVVMauXgla-1">
          <mxGeometry y="98" width="120" height="26" as="geometry" />
        </mxCell>
        <mxCell id="MU1mivHc1LH6sc1QzxUi-14" style="edgeStyle=orthogonalEdgeStyle;rounded=0;orthogonalLoop=1;jettySize=auto;html=1;entryX=0.5;entryY=0;entryDx=0;entryDy=0;fontSize=14;startArrow=none;startFill=0;endArrow=none;endFill=0;" edge="1" parent="1" source="taCera-gn2vVVMauXgla-6" target="MU1mivHc1LH6sc1QzxUi-4">
          <mxGeometry relative="1" as="geometry">
            <Array as="points">
              <mxPoint x="400" y="-901" />
            </Array>
          </mxGeometry>
        </mxCell>
        <mxCell id="MU1mivHc1LH6sc1QzxUi-18" value="1" style="edgeLabel;html=1;align=center;verticalAlign=middle;resizable=0;points=[];fontSize=14;" vertex="1" connectable="0" parent="MU1mivHc1LH6sc1QzxUi-14">
          <mxGeometry x="-0.8111" y="-1" relative="1" as="geometry">
            <mxPoint x="-9" as="offset" />
          </mxGeometry>
        </mxCell>
        <mxCell id="MU1mivHc1LH6sc1QzxUi-19" value="*" style="edgeLabel;html=1;align=center;verticalAlign=middle;resizable=0;points=[];fontSize=14;" vertex="1" connectable="0" parent="MU1mivHc1LH6sc1QzxUi-14">
          <mxGeometry x="0.3476" y="-1" relative="1" as="geometry">
            <mxPoint x="9" as="offset" />
          </mxGeometry>
        </mxCell>
        <mxCell id="MU1mivHc1LH6sc1QzxUi-15" style="edgeStyle=orthogonalEdgeStyle;rounded=0;orthogonalLoop=1;jettySize=auto;html=1;entryX=0.5;entryY=0;entryDx=0;entryDy=0;fontSize=14;startArrow=none;startFill=0;endArrow=none;endFill=0;" edge="1" parent="1" source="taCera-gn2vVVMauXgla-6" target="MU1mivHc1LH6sc1QzxUi-4">
          <mxGeometry relative="1" as="geometry">
            <Array as="points">
              <mxPoint x="460" y="-901" />
            </Array>
          </mxGeometry>
        </mxCell>
        <mxCell id="MU1mivHc1LH6sc1QzxUi-16" value="destiny" style="edgeLabel;html=1;align=center;verticalAlign=middle;resizable=0;points=[];fontSize=14;" vertex="1" connectable="0" parent="MU1mivHc1LH6sc1QzxUi-15">
          <mxGeometry x="-0.5868" y="-3" relative="1" as="geometry">
            <mxPoint x="13" y="26" as="offset" />
          </mxGeometry>
        </mxCell>
        <mxCell id="MU1mivHc1LH6sc1QzxUi-22" value="0..1" style="edgeLabel;html=1;align=center;verticalAlign=middle;resizable=0;points=[];fontSize=14;" vertex="1" connectable="0" parent="MU1mivHc1LH6sc1QzxUi-15">
          <mxGeometry x="-0.6057" y="-1" relative="1" as="geometry">
            <mxPoint x="-15" y="-14" as="offset" />
          </mxGeometry>
        </mxCell>
        <mxCell id="MU1mivHc1LH6sc1QzxUi-23" value="*" style="edgeLabel;html=1;align=center;verticalAlign=middle;resizable=0;points=[];fontSize=14;" vertex="1" connectable="0" parent="MU1mivHc1LH6sc1QzxUi-15">
          <mxGeometry x="0.3159" y="-1" relative="1" as="geometry">
            <mxPoint x="7" as="offset" />
          </mxGeometry>
        </mxCell>
        <mxCell id="taCera-gn2vVVMauXgla-6" value="Account" style="swimlane;fontStyle=0;childLayout=stackLayout;horizontal=1;startSize=17;fillColor=#f5f5f5;horizontalStack=0;resizeParent=1;resizeParentMax=0;resizeLast=0;collapsible=1;marginBottom=0;strokeColor=#666666;fontColor=#333333;" vertex="1" parent="1">
          <mxGeometry x="370" y="-1118.5" width="120" height="121" as="geometry" />
        </mxCell>
        <mxCell id="taCera-gn2vVVMauXgla-7" value="+ numCount" style="text;strokeColor=none;fillColor=none;align=left;verticalAlign=top;spacingLeft=4;spacingRight=4;overflow=hidden;rotatable=0;points=[[0,0.5],[1,0.5]];portConstraint=eastwest;" vertex="1" parent="taCera-gn2vVVMauXgla-6">
          <mxGeometry y="17" width="120" height="26" as="geometry" />
        </mxCell>
        <mxCell id="taCera-gn2vVVMauXgla-8" value="+ currentBalace" style="text;strokeColor=none;fillColor=none;align=left;verticalAlign=top;spacingLeft=4;spacingRight=4;overflow=hidden;rotatable=0;points=[[0,0.5],[1,0.5]];portConstraint=eastwest;" vertex="1" parent="taCera-gn2vVVMauXgla-6">
          <mxGeometry y="43" width="120" height="26" as="geometry" />
        </mxCell>
        <mxCell id="taCera-gn2vVVMauXgla-9" value="+ address" style="text;strokeColor=none;fillColor=none;align=left;verticalAlign=top;spacingLeft=4;spacingRight=4;overflow=hidden;rotatable=0;points=[[0,0.5],[1,0.5]];portConstraint=eastwest;" vertex="1" parent="taCera-gn2vVVMauXgla-6">
          <mxGeometry y="69" width="120" height="26" as="geometry" />
        </mxCell>
        <mxCell id="taCera-gn2vVVMauXgla-10" value="+ area" style="text;strokeColor=none;fillColor=none;align=left;verticalAlign=top;spacingLeft=4;spacingRight=4;overflow=hidden;rotatable=0;points=[[0,0.5],[1,0.5]];portConstraint=eastwest;" vertex="1" parent="taCera-gn2vVVMauXgla-6">
          <mxGeometry y="95" width="120" height="26" as="geometry" />
        </mxCell>
        <mxCell id="taCera-gn2vVVMauXgla-11" value="" style="endArrow=none;html=1;edgeStyle=orthogonalEdgeStyle;rounded=0;" edge="1" parent="1" source="taCera-gn2vVVMauXgla-1" target="taCera-gn2vVVMauXgla-6">
          <mxGeometry relative="1" as="geometry">
            <mxPoint x="85" y="-781" as="sourcePoint" />
            <mxPoint x="245" y="-781" as="targetPoint" />
            <Array as="points" />
          </mxGeometry>
        </mxCell>
        <mxCell id="taCera-gn2vVVMauXgla-12" value="1" style="edgeLabel;resizable=0;html=1;align=left;verticalAlign=bottom;" connectable="0" vertex="1" parent="taCera-gn2vVVMauXgla-11">
          <mxGeometry x="-1" relative="1" as="geometry">
            <mxPoint x="3" as="offset" />
          </mxGeometry>
        </mxCell>
        <mxCell id="taCera-gn2vVVMauXgla-13" value="*" style="edgeLabel;resizable=0;html=1;align=right;verticalAlign=bottom;" connectable="0" vertex="1" parent="taCera-gn2vVVMauXgla-11">
          <mxGeometry x="1" relative="1" as="geometry">
            <mxPoint x="-4" y="18" as="offset" />
          </mxGeometry>
        </mxCell>
        <mxCell id="taCera-gn2vVVMauXgla-39" value="Ordem" style="edgeLabel;html=1;align=center;verticalAlign=middle;resizable=0;points=[];fontSize=14;" vertex="1" connectable="0" parent="taCera-gn2vVVMauXgla-11">
          <mxGeometry x="0.7814" y="-2" relative="1" as="geometry">
            <mxPoint x="-13" y="-4" as="offset" />
          </mxGeometry>
        </mxCell>
        <mxCell id="taCera-gn2vVVMauXgla-14" value="" style="endArrow=none;html=1;edgeStyle=orthogonalEdgeStyle;rounded=0;entryX=0.5;entryY=0;entryDx=0;entryDy=0;" edge="1" parent="1" source="taCera-gn2vVVMauXgla-6" target="taCera-gn2vVVMauXgla-20">
          <mxGeometry relative="1" as="geometry">
            <mxPoint x="155" y="-1011" as="sourcePoint" />
            <mxPoint x="485" y="-875" as="targetPoint" />
            <Array as="points" />
          </mxGeometry>
        </mxCell>
        <mxCell id="taCera-gn2vVVMauXgla-15" value="*" style="edgeLabel;resizable=0;html=1;align=left;verticalAlign=bottom;" connectable="0" vertex="1" parent="taCera-gn2vVVMauXgla-14">
          <mxGeometry x="-1" relative="1" as="geometry">
            <mxPoint x="6" y="19" as="offset" />
          </mxGeometry>
        </mxCell>
        <mxCell id="taCera-gn2vVVMauXgla-16" value="1" style="edgeLabel;resizable=0;html=1;align=right;verticalAlign=bottom;" connectable="0" vertex="1" parent="taCera-gn2vVVMauXgla-14">
          <mxGeometry x="1" relative="1" as="geometry">
            <mxPoint x="12" y="-3" as="offset" />
          </mxGeometry>
        </mxCell>
        <mxCell id="MU1mivHc1LH6sc1QzxUi-9" style="edgeStyle=orthogonalEdgeStyle;rounded=0;orthogonalLoop=1;jettySize=auto;html=1;fontSize=14;startArrow=none;startFill=0;endArrow=none;endFill=0;" edge="1" parent="1" source="taCera-gn2vVVMauXgla-20" target="MU1mivHc1LH6sc1QzxUi-4">
          <mxGeometry relative="1" as="geometry">
            <Array as="points">
              <mxPoint x="660" y="-860" />
            </Array>
          </mxGeometry>
        </mxCell>
        <mxCell id="MU1mivHc1LH6sc1QzxUi-12" value="*" style="edgeLabel;html=1;align=center;verticalAlign=middle;resizable=0;points=[];fontSize=14;" vertex="1" connectable="0" parent="MU1mivHc1LH6sc1QzxUi-9">
          <mxGeometry x="0.8914" y="1" relative="1" as="geometry">
            <mxPoint y="-14" as="offset" />
          </mxGeometry>
        </mxCell>
        <mxCell id="MU1mivHc1LH6sc1QzxUi-13" value="1" style="edgeLabel;html=1;align=center;verticalAlign=middle;resizable=0;points=[];fontSize=14;" vertex="1" connectable="0" parent="MU1mivHc1LH6sc1QzxUi-9">
          <mxGeometry x="-0.8324" y="-1" relative="1" as="geometry">
            <mxPoint x="10" y="13" as="offset" />
          </mxGeometry>
        </mxCell>
        <mxCell id="taCera-gn2vVVMauXgla-20" value="TypeCount" style="swimlane;fontStyle=0;childLayout=stackLayout;horizontal=1;startSize=20;horizontalStack=0;resizeParent=1;resizeParentMax=0;resizeLast=0;collapsible=1;marginBottom=0;fillColor=#f5f5f5;fontColor=#333333;strokeColor=#666666;" vertex="1" parent="1">
          <mxGeometry x="600" y="-990" width="120" height="46" as="geometry" />
        </mxCell>
        <mxCell id="taCera-gn2vVVMauXgla-44" value="+ name" style="text;strokeColor=none;fillColor=none;align=left;verticalAlign=top;spacingLeft=4;spacingRight=4;overflow=hidden;rotatable=0;points=[[0,0.5],[1,0.5]];portConstraint=eastwest;" vertex="1" parent="taCera-gn2vVVMauXgla-20">
          <mxGeometry y="20" width="120" height="26" as="geometry" />
        </mxCell>
        <mxCell id="MU1mivHc1LH6sc1QzxUi-1" value="typeCount its not a attribute of Account because (this example is too easy so it doenst matter here) but it makes more sense like this." style="text;html=1;strokeColor=none;fillColor=none;align=center;verticalAlign=middle;whiteSpace=wrap;rounded=0;" vertex="1" parent="1">
          <mxGeometry x="380" y="-832.5" width="200" height="72.5" as="geometry" />
        </mxCell>
        <mxCell id="MU1mivHc1LH6sc1QzxUi-2" value="TypeMovement" style="swimlane;fontStyle=0;childLayout=stackLayout;horizontal=1;startSize=20;horizontalStack=0;resizeParent=1;resizeParentMax=0;resizeLast=0;collapsible=1;marginBottom=0;fillColor=#f5f5f5;fontColor=#333333;strokeColor=#666666;" vertex="1" parent="1">
          <mxGeometry x="130" y="-890" width="120" height="46" as="geometry" />
        </mxCell>
        <mxCell id="MU1mivHc1LH6sc1QzxUi-3" value="+ name" style="text;strokeColor=none;fillColor=none;align=left;verticalAlign=top;spacingLeft=4;spacingRight=4;overflow=hidden;rotatable=0;points=[[0,0.5],[1,0.5]];portConstraint=eastwest;" vertex="1" parent="MU1mivHc1LH6sc1QzxUi-2">
          <mxGeometry y="20" width="120" height="26" as="geometry" />
        </mxCell>
        <mxCell id="MU1mivHc1LH6sc1QzxUi-10" style="edgeStyle=orthogonalEdgeStyle;rounded=0;orthogonalLoop=1;jettySize=auto;html=1;fontSize=14;startArrow=none;startFill=0;endArrow=none;endFill=0;" edge="1" parent="1" source="MU1mivHc1LH6sc1QzxUi-4" target="MU1mivHc1LH6sc1QzxUi-2">
          <mxGeometry relative="1" as="geometry" />
        </mxCell>
        <mxCell id="MU1mivHc1LH6sc1QzxUi-20" value="1" style="edgeLabel;html=1;align=center;verticalAlign=middle;resizable=0;points=[];fontSize=14;" vertex="1" connectable="0" parent="MU1mivHc1LH6sc1QzxUi-10">
          <mxGeometry x="0.78" y="-2" relative="1" as="geometry">
            <mxPoint x="-3" y="-10" as="offset" />
          </mxGeometry>
        </mxCell>
        <mxCell id="MU1mivHc1LH6sc1QzxUi-21" value="*" style="edgeLabel;html=1;align=center;verticalAlign=middle;resizable=0;points=[];fontSize=14;" vertex="1" connectable="0" parent="MU1mivHc1LH6sc1QzxUi-10">
          <mxGeometry x="-0.7533" y="-1" relative="1" as="geometry">
            <mxPoint x="7" y="10" as="offset" />
          </mxGeometry>
        </mxCell>
        <mxCell id="MU1mivHc1LH6sc1QzxUi-4" value="Movement" style="swimlane;fontStyle=0;childLayout=stackLayout;horizontal=1;startSize=17;fillColor=#f5f5f5;horizontalStack=0;resizeParent=1;resizeParentMax=0;resizeLast=0;collapsible=1;marginBottom=0;strokeColor=#666666;fontColor=#333333;" vertex="1" parent="1">
          <mxGeometry x="370" y="-901.5" width="120" height="69" as="geometry" />
        </mxCell>
        <mxCell id="MU1mivHc1LH6sc1QzxUi-5" value="+ date" style="text;strokeColor=none;fillColor=none;align=left;verticalAlign=top;spacingLeft=4;spacingRight=4;overflow=hidden;rotatable=0;points=[[0,0.5],[1,0.5]];portConstraint=eastwest;" vertex="1" parent="MU1mivHc1LH6sc1QzxUi-4">
          <mxGeometry y="17" width="120" height="26" as="geometry" />
        </mxCell>
        <mxCell id="MU1mivHc1LH6sc1QzxUi-6" value="+ amount" style="text;strokeColor=none;fillColor=none;align=left;verticalAlign=top;spacingLeft=4;spacingRight=4;overflow=hidden;rotatable=0;points=[[0,0.5],[1,0.5]];portConstraint=eastwest;" vertex="1" parent="MU1mivHc1LH6sc1QzxUi-4">
          <mxGeometry y="43" width="120" height="26" as="geometry" />
        </mxCell>
      </root>
    </mxGraphModel>
  </diagram>
  <diagram id="XiNOCSjlODdfkvbIOb9-" name="F01_ex7">
    <mxGraphModel dx="2482" dy="1986" grid="1" gridSize="10" guides="1" tooltips="1" connect="1" arrows="1" fold="1" page="1" pageScale="1" pageWidth="827" pageHeight="1169" math="0" shadow="0">
      <root>
        <mxCell id="0" />
        <mxCell id="1" parent="0" />
        <mxCell id="PYCgQPuMbQlDt2SW8Shz-17" style="edgeStyle=orthogonalEdgeStyle;rounded=0;orthogonalLoop=1;jettySize=auto;html=1;endArrow=none;endFill=0;" edge="1" parent="1" source="PYCgQPuMbQlDt2SW8Shz-1" target="PYCgQPuMbQlDt2SW8Shz-11">
          <mxGeometry relative="1" as="geometry">
            <mxPoint x="-189" y="-1044" as="targetPoint" />
            <Array as="points">
              <mxPoint x="-669" y="-1044" />
            </Array>
          </mxGeometry>
        </mxCell>
        <mxCell id="PYCgQPuMbQlDt2SW8Shz-33" value="*" style="edgeLabel;html=1;align=center;verticalAlign=middle;resizable=0;points=[];" vertex="1" connectable="0" parent="PYCgQPuMbQlDt2SW8Shz-17">
          <mxGeometry x="0.9328" y="-2" relative="1" as="geometry">
            <mxPoint x="7" y="9" as="offset" />
          </mxGeometry>
        </mxCell>
        <mxCell id="PYCgQPuMbQlDt2SW8Shz-34" value="1" style="edgeLabel;html=1;align=center;verticalAlign=middle;resizable=0;points=[];" vertex="1" connectable="0" parent="PYCgQPuMbQlDt2SW8Shz-17">
          <mxGeometry x="-0.9449" y="1" relative="1" as="geometry">
            <mxPoint x="-10" as="offset" />
          </mxGeometry>
        </mxCell>
        <mxCell id="PYCgQPuMbQlDt2SW8Shz-44" value="{Default: jogo.id Estadio = jogo.EquipaVistiada.clubeEstadio}" style="edgeLabel;html=1;align=center;verticalAlign=middle;resizable=0;points=[];" vertex="1" connectable="0" parent="PYCgQPuMbQlDt2SW8Shz-17">
          <mxGeometry x="-0.298" y="2" relative="1" as="geometry">
            <mxPoint x="182" y="-157" as="offset" />
          </mxGeometry>
        </mxCell>
        <mxCell id="PYCgQPuMbQlDt2SW8Shz-18" style="edgeStyle=orthogonalEdgeStyle;rounded=0;orthogonalLoop=1;jettySize=auto;html=1;endArrow=none;endFill=0;" edge="1" parent="1" source="PYCgQPuMbQlDt2SW8Shz-1" target="PYCgQPuMbQlDt2SW8Shz-7">
          <mxGeometry relative="1" as="geometry">
            <Array as="points">
              <mxPoint x="-672" y="-330" />
            </Array>
          </mxGeometry>
        </mxCell>
        <mxCell id="PYCgQPuMbQlDt2SW8Shz-35" value="1" style="edgeLabel;html=1;align=center;verticalAlign=middle;resizable=0;points=[];" vertex="1" connectable="0" parent="PYCgQPuMbQlDt2SW8Shz-18">
          <mxGeometry x="-0.8909" y="1" relative="1" as="geometry">
            <mxPoint x="-3" y="-10" as="offset" />
          </mxGeometry>
        </mxCell>
        <mxCell id="PYCgQPuMbQlDt2SW8Shz-36" value="*" style="edgeLabel;html=1;align=center;verticalAlign=middle;resizable=0;points=[];" vertex="1" connectable="0" parent="PYCgQPuMbQlDt2SW8Shz-18">
          <mxGeometry x="0.8818" relative="1" as="geometry">
            <mxPoint x="4" y="11" as="offset" />
          </mxGeometry>
        </mxCell>
        <mxCell id="PYCgQPuMbQlDt2SW8Shz-1" value="Stage" style="swimlane;fontStyle=0;childLayout=stackLayout;horizontal=1;startSize=20;horizontalStack=0;resizeParent=1;resizeParentMax=0;resizeLast=0;collapsible=1;marginBottom=0;fillColor=#f5f5f5;fontColor=#333333;strokeColor=#666666;" vertex="1" parent="1">
          <mxGeometry x="-740" y="-510" width="120" height="46" as="geometry" />
        </mxCell>
        <mxCell id="PYCgQPuMbQlDt2SW8Shz-2" value="+ name" style="text;strokeColor=none;fillColor=none;align=left;verticalAlign=top;spacingLeft=4;spacingRight=4;overflow=hidden;rotatable=0;points=[[0,0.5],[1,0.5]];portConstraint=eastwest;" vertex="1" parent="PYCgQPuMbQlDt2SW8Shz-1">
          <mxGeometry y="20" width="120" height="26" as="geometry" />
        </mxCell>
        <mxCell id="PYCgQPuMbQlDt2SW8Shz-22" style="edgeStyle=orthogonalEdgeStyle;rounded=0;orthogonalLoop=1;jettySize=auto;html=1;endArrow=none;endFill=0;" edge="1" parent="1" source="PYCgQPuMbQlDt2SW8Shz-7" target="PYCgQPuMbQlDt2SW8Shz-19">
          <mxGeometry relative="1" as="geometry">
            <Array as="points">
              <mxPoint x="688" y="-320" />
              <mxPoint x="688" y="-900" />
            </Array>
          </mxGeometry>
        </mxCell>
        <mxCell id="PYCgQPuMbQlDt2SW8Shz-31" value="*" style="edgeLabel;html=1;align=center;verticalAlign=middle;resizable=0;points=[];" vertex="1" connectable="0" parent="PYCgQPuMbQlDt2SW8Shz-22">
          <mxGeometry x="0.7978" y="2" relative="1" as="geometry">
            <mxPoint x="-118" y="-7" as="offset" />
          </mxGeometry>
        </mxCell>
        <mxCell id="PYCgQPuMbQlDt2SW8Shz-32" value="1" style="edgeLabel;html=1;align=center;verticalAlign=middle;resizable=0;points=[];" vertex="1" connectable="0" parent="PYCgQPuMbQlDt2SW8Shz-22">
          <mxGeometry x="-0.764" y="2" relative="1" as="geometry">
            <mxPoint x="-136" y="4" as="offset" />
          </mxGeometry>
        </mxCell>
        <mxCell id="PYCgQPuMbQlDt2SW8Shz-7" value="Club" style="swimlane;fontStyle=0;childLayout=stackLayout;horizontal=1;startSize=20;horizontalStack=0;resizeParent=1;resizeParentMax=0;resizeLast=0;collapsible=1;marginBottom=0;fillColor=#f5f5f5;fontColor=#333333;strokeColor=#666666;" vertex="1" parent="1">
          <mxGeometry x="146" y="-380" width="120" height="98" as="geometry" />
        </mxCell>
        <mxCell id="PYCgQPuMbQlDt2SW8Shz-8" value="+ name" style="text;strokeColor=none;fillColor=none;align=left;verticalAlign=top;spacingLeft=4;spacingRight=4;overflow=hidden;rotatable=0;points=[[0,0.5],[1,0.5]];portConstraint=eastwest;" vertex="1" parent="PYCgQPuMbQlDt2SW8Shz-7">
          <mxGeometry y="20" width="120" height="26" as="geometry" />
        </mxCell>
        <mxCell id="PYCgQPuMbQlDt2SW8Shz-10" value="+ address" style="text;strokeColor=none;fillColor=none;align=left;verticalAlign=top;spacingLeft=4;spacingRight=4;overflow=hidden;rotatable=0;points=[[0,0.5],[1,0.5]];portConstraint=eastwest;" vertex="1" parent="PYCgQPuMbQlDt2SW8Shz-7">
          <mxGeometry y="46" width="120" height="26" as="geometry" />
        </mxCell>
        <mxCell id="PYCgQPuMbQlDt2SW8Shz-9" value="+ yearFund." style="text;strokeColor=none;fillColor=none;align=left;verticalAlign=top;spacingLeft=4;spacingRight=4;overflow=hidden;rotatable=0;points=[[0,0.5],[1,0.5]];portConstraint=eastwest;" vertex="1" parent="PYCgQPuMbQlDt2SW8Shz-7">
          <mxGeometry y="72" width="120" height="26" as="geometry" />
        </mxCell>
        <mxCell id="PYCgQPuMbQlDt2SW8Shz-23" style="edgeStyle=orthogonalEdgeStyle;rounded=0;orthogonalLoop=1;jettySize=auto;html=1;endArrow=none;endFill=0;" edge="1" parent="1" source="PYCgQPuMbQlDt2SW8Shz-11" target="PYCgQPuMbQlDt2SW8Shz-19">
          <mxGeometry relative="1" as="geometry">
            <mxPoint x="126" y="-1040" as="sourcePoint" />
            <Array as="points">
              <mxPoint x="206" y="-1040" />
            </Array>
          </mxGeometry>
        </mxCell>
        <mxCell id="PYCgQPuMbQlDt2SW8Shz-25" value="Visited" style="edgeLabel;html=1;align=center;verticalAlign=middle;resizable=0;points=[];" vertex="1" connectable="0" parent="PYCgQPuMbQlDt2SW8Shz-23">
          <mxGeometry x="-0.074" relative="1" as="geometry">
            <mxPoint x="-36" as="offset" />
          </mxGeometry>
        </mxCell>
        <mxCell id="PYCgQPuMbQlDt2SW8Shz-27" value="*" style="edgeLabel;html=1;align=center;verticalAlign=middle;resizable=0;points=[];" vertex="1" connectable="0" parent="PYCgQPuMbQlDt2SW8Shz-23">
          <mxGeometry x="-0.9008" y="-2" relative="1" as="geometry">
            <mxPoint x="-9" y="-13" as="offset" />
          </mxGeometry>
        </mxCell>
        <mxCell id="PYCgQPuMbQlDt2SW8Shz-28" value="1" style="edgeLabel;html=1;align=center;verticalAlign=middle;resizable=0;points=[];" vertex="1" connectable="0" parent="PYCgQPuMbQlDt2SW8Shz-23">
          <mxGeometry x="0.9008" y="2" relative="1" as="geometry">
            <mxPoint x="5" as="offset" />
          </mxGeometry>
        </mxCell>
        <mxCell id="PYCgQPuMbQlDt2SW8Shz-24" style="edgeStyle=orthogonalEdgeStyle;rounded=0;orthogonalLoop=1;jettySize=auto;html=1;endArrow=none;endFill=0;" edge="1" parent="1" source="PYCgQPuMbQlDt2SW8Shz-11" target="PYCgQPuMbQlDt2SW8Shz-19">
          <mxGeometry relative="1" as="geometry">
            <mxPoint x="126" y="-1020" as="sourcePoint" />
            <Array as="points">
              <mxPoint x="176" y="-1020" />
            </Array>
          </mxGeometry>
        </mxCell>
        <mxCell id="PYCgQPuMbQlDt2SW8Shz-26" value="Visitor" style="edgeLabel;html=1;align=center;verticalAlign=middle;resizable=0;points=[];" vertex="1" connectable="0" parent="PYCgQPuMbQlDt2SW8Shz-24">
          <mxGeometry x="0.0951" y="-1" relative="1" as="geometry">
            <mxPoint x="-27" y="-2" as="offset" />
          </mxGeometry>
        </mxCell>
        <mxCell id="PYCgQPuMbQlDt2SW8Shz-29" value="1" style="edgeLabel;html=1;align=center;verticalAlign=middle;resizable=0;points=[];" vertex="1" connectable="0" parent="PYCgQPuMbQlDt2SW8Shz-24">
          <mxGeometry x="0.8803" y="2" relative="1" as="geometry">
            <mxPoint x="-10" y="1" as="offset" />
          </mxGeometry>
        </mxCell>
        <mxCell id="PYCgQPuMbQlDt2SW8Shz-30" value="*" style="edgeLabel;html=1;align=center;verticalAlign=middle;resizable=0;points=[];" vertex="1" connectable="0" parent="PYCgQPuMbQlDt2SW8Shz-24">
          <mxGeometry x="-0.9016" y="-1" relative="1" as="geometry">
            <mxPoint x="-7" y="-5" as="offset" />
          </mxGeometry>
        </mxCell>
        <mxCell id="PYCgQPuMbQlDt2SW8Shz-11" value="Game" style="swimlane;fontStyle=0;childLayout=stackLayout;horizontal=1;startSize=20;horizontalStack=0;resizeParent=1;resizeParentMax=0;resizeLast=0;collapsible=1;marginBottom=0;fillColor=#f5f5f5;fontColor=#333333;strokeColor=#666666;" vertex="1" parent="1">
          <mxGeometry x="-112" y="-1080" width="120" height="72" as="geometry" />
        </mxCell>
        <mxCell id="PYCgQPuMbQlDt2SW8Shz-12" value="+ jornada" style="text;strokeColor=none;fillColor=none;align=left;verticalAlign=top;spacingLeft=4;spacingRight=4;overflow=hidden;rotatable=0;points=[[0,0.5],[1,0.5]];portConstraint=eastwest;" vertex="1" parent="PYCgQPuMbQlDt2SW8Shz-11">
          <mxGeometry y="20" width="120" height="26" as="geometry" />
        </mxCell>
        <mxCell id="PYCgQPuMbQlDt2SW8Shz-13" value="+ date" style="text;strokeColor=none;fillColor=none;align=left;verticalAlign=top;spacingLeft=4;spacingRight=4;overflow=hidden;rotatable=0;points=[[0,0.5],[1,0.5]];portConstraint=eastwest;" vertex="1" parent="PYCgQPuMbQlDt2SW8Shz-11">
          <mxGeometry y="46" width="120" height="26" as="geometry" />
        </mxCell>
        <mxCell id="PYCgQPuMbQlDt2SW8Shz-41" style="edgeStyle=orthogonalEdgeStyle;rounded=0;orthogonalLoop=1;jettySize=auto;html=1;endArrow=none;endFill=0;" edge="1" parent="1" source="PYCgQPuMbQlDt2SW8Shz-19" target="PYCgQPuMbQlDt2SW8Shz-37">
          <mxGeometry relative="1" as="geometry">
            <Array as="points">
              <mxPoint x="246" y="-1011" />
            </Array>
          </mxGeometry>
        </mxCell>
        <mxCell id="PYCgQPuMbQlDt2SW8Shz-42" value="*" style="edgeLabel;html=1;align=center;verticalAlign=middle;resizable=0;points=[];" vertex="1" connectable="0" parent="PYCgQPuMbQlDt2SW8Shz-41">
          <mxGeometry x="-0.776" relative="1" as="geometry">
            <mxPoint x="-7" y="-11" as="offset" />
          </mxGeometry>
        </mxCell>
        <mxCell id="PYCgQPuMbQlDt2SW8Shz-43" value="1" style="edgeLabel;html=1;align=center;verticalAlign=middle;resizable=0;points=[];" vertex="1" connectable="0" parent="PYCgQPuMbQlDt2SW8Shz-41">
          <mxGeometry x="0.704" y="1" relative="1" as="geometry">
            <mxPoint x="5" y="9" as="offset" />
          </mxGeometry>
        </mxCell>
        <mxCell id="PYCgQPuMbQlDt2SW8Shz-53" style="edgeStyle=orthogonalEdgeStyle;rounded=0;orthogonalLoop=1;jettySize=auto;html=1;endArrow=none;endFill=0;" edge="1" parent="1" source="PYCgQPuMbQlDt2SW8Shz-19" target="PYCgQPuMbQlDt2SW8Shz-52">
          <mxGeometry relative="1" as="geometry">
            <Array as="points">
              <mxPoint x="406" y="-860" />
            </Array>
          </mxGeometry>
        </mxCell>
        <mxCell id="PYCgQPuMbQlDt2SW8Shz-130" value="*" style="edgeLabel;html=1;align=center;verticalAlign=middle;resizable=0;points=[];" vertex="1" connectable="0" parent="PYCgQPuMbQlDt2SW8Shz-53">
          <mxGeometry x="-0.888" y="1" relative="1" as="geometry">
            <mxPoint as="offset" />
          </mxGeometry>
        </mxCell>
        <mxCell id="PYCgQPuMbQlDt2SW8Shz-19" value="Team" style="swimlane;fontStyle=0;childLayout=stackLayout;horizontal=1;startSize=20;horizontalStack=0;resizeParent=1;resizeParentMax=0;resizeLast=0;collapsible=1;marginBottom=0;fillColor=#f5f5f5;fontColor=#333333;strokeColor=#666666;" vertex="1" parent="1">
          <mxGeometry x="146" y="-920" width="120" height="72" as="geometry" />
        </mxCell>
        <mxCell id="PYCgQPuMbQlDt2SW8Shz-20" value="+ name" style="text;strokeColor=none;fillColor=none;align=left;verticalAlign=top;spacingLeft=4;spacingRight=4;overflow=hidden;rotatable=0;points=[[0,0.5],[1,0.5]];portConstraint=eastwest;" vertex="1" parent="PYCgQPuMbQlDt2SW8Shz-19">
          <mxGeometry y="20" width="120" height="26" as="geometry" />
        </mxCell>
        <mxCell id="PYCgQPuMbQlDt2SW8Shz-21" value="+ gender" style="text;strokeColor=none;fillColor=none;align=left;verticalAlign=top;spacingLeft=4;spacingRight=4;overflow=hidden;rotatable=0;points=[[0,0.5],[1,0.5]];portConstraint=eastwest;" vertex="1" parent="PYCgQPuMbQlDt2SW8Shz-19">
          <mxGeometry y="46" width="120" height="26" as="geometry" />
        </mxCell>
        <mxCell id="PYCgQPuMbQlDt2SW8Shz-37" value="Age Class" style="swimlane;fontStyle=0;childLayout=stackLayout;horizontal=1;startSize=20;horizontalStack=0;resizeParent=1;resizeParentMax=0;resizeLast=0;collapsible=1;marginBottom=0;fillColor=#f5f5f5;fontColor=#333333;strokeColor=#666666;" vertex="1" parent="1">
          <mxGeometry x="366" y="-1060" width="120" height="98" as="geometry" />
        </mxCell>
        <mxCell id="PYCgQPuMbQlDt2SW8Shz-38" value="+ name" style="text;strokeColor=none;fillColor=none;align=left;verticalAlign=top;spacingLeft=4;spacingRight=4;overflow=hidden;rotatable=0;points=[[0,0.5],[1,0.5]];portConstraint=eastwest;" vertex="1" parent="PYCgQPuMbQlDt2SW8Shz-37">
          <mxGeometry y="20" width="120" height="26" as="geometry" />
        </mxCell>
        <mxCell id="PYCgQPuMbQlDt2SW8Shz-39" value="+ minAge" style="text;strokeColor=none;fillColor=none;align=left;verticalAlign=top;spacingLeft=4;spacingRight=4;overflow=hidden;rotatable=0;points=[[0,0.5],[1,0.5]];portConstraint=eastwest;" vertex="1" parent="PYCgQPuMbQlDt2SW8Shz-37">
          <mxGeometry y="46" width="120" height="26" as="geometry" />
        </mxCell>
        <mxCell id="PYCgQPuMbQlDt2SW8Shz-40" value="+ maxAge" style="text;strokeColor=none;fillColor=none;align=left;verticalAlign=top;spacingLeft=4;spacingRight=4;overflow=hidden;rotatable=0;points=[[0,0.5],[1,0.5]];portConstraint=eastwest;" vertex="1" parent="PYCgQPuMbQlDt2SW8Shz-37">
          <mxGeometry y="72" width="120" height="26" as="geometry" />
        </mxCell>
        <mxCell id="PYCgQPuMbQlDt2SW8Shz-45" value="Competition" style="swimlane;fontStyle=0;childLayout=stackLayout;horizontal=1;startSize=20;horizontalStack=0;resizeParent=1;resizeParentMax=0;resizeLast=0;collapsible=1;marginBottom=0;fillColor=#f5f5f5;fontColor=#333333;strokeColor=#666666;" vertex="1" parent="1">
          <mxGeometry x="533" y="-778" width="120" height="72" as="geometry" />
        </mxCell>
        <mxCell id="PYCgQPuMbQlDt2SW8Shz-46" value="+ name" style="text;strokeColor=none;fillColor=none;align=left;verticalAlign=top;spacingLeft=4;spacingRight=4;overflow=hidden;rotatable=0;points=[[0,0.5],[1,0.5]];portConstraint=eastwest;" vertex="1" parent="PYCgQPuMbQlDt2SW8Shz-45">
          <mxGeometry y="20" width="120" height="26" as="geometry" />
        </mxCell>
        <mxCell id="PYCgQPuMbQlDt2SW8Shz-47" value="+ gender" style="text;strokeColor=none;fillColor=none;align=left;verticalAlign=top;spacingLeft=4;spacingRight=4;overflow=hidden;rotatable=0;points=[[0,0.5],[1,0.5]];portConstraint=eastwest;" vertex="1" parent="PYCgQPuMbQlDt2SW8Shz-45">
          <mxGeometry y="46" width="120" height="26" as="geometry" />
        </mxCell>
        <mxCell id="PYCgQPuMbQlDt2SW8Shz-49" value="Season" style="swimlane;fontStyle=0;childLayout=stackLayout;horizontal=1;startSize=20;horizontalStack=0;resizeParent=1;resizeParentMax=0;resizeLast=0;collapsible=1;marginBottom=0;fillColor=#f5f5f5;fontColor=#333333;strokeColor=#666666;" vertex="1" parent="1">
          <mxGeometry x="346" y="-607" width="120" height="46" as="geometry" />
        </mxCell>
        <mxCell id="PYCgQPuMbQlDt2SW8Shz-50" value="+ year" style="text;strokeColor=none;fillColor=none;align=left;verticalAlign=top;spacingLeft=4;spacingRight=4;overflow=hidden;rotatable=0;points=[[0,0.5],[1,0.5]];portConstraint=eastwest;" vertex="1" parent="PYCgQPuMbQlDt2SW8Shz-49">
          <mxGeometry y="20" width="120" height="26" as="geometry" />
        </mxCell>
        <mxCell id="PYCgQPuMbQlDt2SW8Shz-54" style="edgeStyle=orthogonalEdgeStyle;rounded=0;orthogonalLoop=1;jettySize=auto;html=1;endArrow=none;endFill=0;" edge="1" parent="1" source="PYCgQPuMbQlDt2SW8Shz-52" target="PYCgQPuMbQlDt2SW8Shz-49">
          <mxGeometry relative="1" as="geometry" />
        </mxCell>
        <mxCell id="PYCgQPuMbQlDt2SW8Shz-131" value="*" style="edgeLabel;html=1;align=center;verticalAlign=middle;resizable=0;points=[];" vertex="1" connectable="0" parent="PYCgQPuMbQlDt2SW8Shz-54">
          <mxGeometry x="0.7263" y="-1" relative="1" as="geometry">
            <mxPoint as="offset" />
          </mxGeometry>
        </mxCell>
        <mxCell id="PYCgQPuMbQlDt2SW8Shz-55" style="edgeStyle=orthogonalEdgeStyle;rounded=0;orthogonalLoop=1;jettySize=auto;html=1;endArrow=none;endFill=0;" edge="1" parent="1" source="PYCgQPuMbQlDt2SW8Shz-52" target="PYCgQPuMbQlDt2SW8Shz-45">
          <mxGeometry relative="1" as="geometry" />
        </mxCell>
        <mxCell id="PYCgQPuMbQlDt2SW8Shz-132" value="*" style="edgeLabel;html=1;align=center;verticalAlign=middle;resizable=0;points=[];" vertex="1" connectable="0" parent="PYCgQPuMbQlDt2SW8Shz-55">
          <mxGeometry x="0.7213" y="-3" relative="1" as="geometry">
            <mxPoint as="offset" />
          </mxGeometry>
        </mxCell>
        <mxCell id="PYCgQPuMbQlDt2SW8Shz-57" style="edgeStyle=orthogonalEdgeStyle;rounded=0;orthogonalLoop=1;jettySize=auto;html=1;endArrow=none;endFill=0;dashed=1;" edge="1" parent="1" source="PYCgQPuMbQlDt2SW8Shz-52" target="PYCgQPuMbQlDt2SW8Shz-56">
          <mxGeometry relative="1" as="geometry">
            <Array as="points">
              <mxPoint x="296" y="-742" />
            </Array>
          </mxGeometry>
        </mxCell>
        <mxCell id="PYCgQPuMbQlDt2SW8Shz-52" value="" style="rhombus;whiteSpace=wrap;html=1;" vertex="1" parent="1">
          <mxGeometry x="366" y="-782" width="80" height="80" as="geometry" />
        </mxCell>
        <mxCell id="PYCgQPuMbQlDt2SW8Shz-56" value="{uma equipa só pode jogar em competições do mesmo escalão e género" style="text;html=1;strokeColor=none;fillColor=none;align=center;verticalAlign=middle;whiteSpace=wrap;rounded=0;" vertex="1" parent="1">
          <mxGeometry x="236" y="-726" width="120" height="70" as="geometry" />
        </mxCell>
        <mxCell id="PYCgQPuMbQlDt2SW8Shz-63" style="edgeStyle=orthogonalEdgeStyle;rounded=0;orthogonalLoop=1;jettySize=auto;html=1;endArrow=none;endFill=0;" edge="1" parent="1" source="PYCgQPuMbQlDt2SW8Shz-59" target="PYCgQPuMbQlDt2SW8Shz-19">
          <mxGeometry relative="1" as="geometry">
            <Array as="points">
              <mxPoint x="-142" y="-570" />
              <mxPoint x="-142" y="-884" />
            </Array>
          </mxGeometry>
        </mxCell>
        <mxCell id="PYCgQPuMbQlDt2SW8Shz-64" value="*" style="edgeLabel;html=1;align=center;verticalAlign=middle;resizable=0;points=[];" vertex="1" connectable="0" parent="PYCgQPuMbQlDt2SW8Shz-63">
          <mxGeometry x="-0.7636" y="-3" relative="1" as="geometry">
            <mxPoint x="-82" y="7" as="offset" />
          </mxGeometry>
        </mxCell>
        <mxCell id="PYCgQPuMbQlDt2SW8Shz-65" value="*" style="edgeLabel;html=1;align=center;verticalAlign=middle;resizable=0;points=[];" vertex="1" connectable="0" parent="PYCgQPuMbQlDt2SW8Shz-63">
          <mxGeometry x="0.7636" y="1" relative="1" as="geometry">
            <mxPoint x="82" y="5" as="offset" />
          </mxGeometry>
        </mxCell>
        <mxCell id="PYCgQPuMbQlDt2SW8Shz-59" value="Player" style="swimlane;fontStyle=0;childLayout=stackLayout;horizontal=1;startSize=20;horizontalStack=0;resizeParent=1;resizeParentMax=0;resizeLast=0;collapsible=1;marginBottom=0;fillColor=#f5f5f5;fontColor=#333333;strokeColor=#666666;" vertex="1" parent="1">
          <mxGeometry x="-460" y="-633" width="120" height="124" as="geometry" />
        </mxCell>
        <mxCell id="PYCgQPuMbQlDt2SW8Shz-60" value="+ name" style="text;strokeColor=none;fillColor=none;align=left;verticalAlign=top;spacingLeft=4;spacingRight=4;overflow=hidden;rotatable=0;points=[[0,0.5],[1,0.5]];portConstraint=eastwest;" vertex="1" parent="PYCgQPuMbQlDt2SW8Shz-59">
          <mxGeometry y="20" width="120" height="26" as="geometry" />
        </mxCell>
        <mxCell id="PYCgQPuMbQlDt2SW8Shz-61" value="+ datanase" style="text;strokeColor=none;fillColor=none;align=left;verticalAlign=top;spacingLeft=4;spacingRight=4;overflow=hidden;rotatable=0;points=[[0,0.5],[1,0.5]];portConstraint=eastwest;" vertex="1" parent="PYCgQPuMbQlDt2SW8Shz-59">
          <mxGeometry y="46" width="120" height="26" as="geometry" />
        </mxCell>
        <mxCell id="PYCgQPuMbQlDt2SW8Shz-62" value="+ gender" style="text;strokeColor=none;fillColor=none;align=left;verticalAlign=top;spacingLeft=4;spacingRight=4;overflow=hidden;rotatable=0;points=[[0,0.5],[1,0.5]];portConstraint=eastwest;" vertex="1" parent="PYCgQPuMbQlDt2SW8Shz-59">
          <mxGeometry y="72" width="120" height="26" as="geometry" />
        </mxCell>
        <mxCell id="PYCgQPuMbQlDt2SW8Shz-70" value="+ age" style="text;strokeColor=none;fillColor=none;align=left;verticalAlign=top;spacingLeft=4;spacingRight=4;overflow=hidden;rotatable=0;points=[[0,0.5],[1,0.5]];portConstraint=eastwest;" vertex="1" parent="PYCgQPuMbQlDt2SW8Shz-59">
          <mxGeometry y="98" width="120" height="26" as="geometry" />
        </mxCell>
        <mxCell id="PYCgQPuMbQlDt2SW8Shz-66" value="Event" style="swimlane;fontStyle=0;childLayout=stackLayout;horizontal=1;startSize=20;horizontalStack=0;resizeParent=1;resizeParentMax=0;resizeLast=0;collapsible=1;marginBottom=0;fillColor=#f5f5f5;fontColor=#333333;strokeColor=#666666;" vertex="1" parent="1">
          <mxGeometry x="-507.5" y="-1018" width="120" height="98" as="geometry" />
        </mxCell>
        <mxCell id="PYCgQPuMbQlDt2SW8Shz-67" value="+ name" style="text;strokeColor=none;fillColor=none;align=left;verticalAlign=top;spacingLeft=4;spacingRight=4;overflow=hidden;rotatable=0;points=[[0,0.5],[1,0.5]];portConstraint=eastwest;" vertex="1" parent="PYCgQPuMbQlDt2SW8Shz-66">
          <mxGeometry y="20" width="120" height="26" as="geometry" />
        </mxCell>
        <mxCell id="PYCgQPuMbQlDt2SW8Shz-68" value="+ address" style="text;strokeColor=none;fillColor=none;align=left;verticalAlign=top;spacingLeft=4;spacingRight=4;overflow=hidden;rotatable=0;points=[[0,0.5],[1,0.5]];portConstraint=eastwest;" vertex="1" parent="PYCgQPuMbQlDt2SW8Shz-66">
          <mxGeometry y="46" width="120" height="26" as="geometry" />
        </mxCell>
        <mxCell id="PYCgQPuMbQlDt2SW8Shz-69" value="+ yearFund." style="text;strokeColor=none;fillColor=none;align=left;verticalAlign=top;spacingLeft=4;spacingRight=4;overflow=hidden;rotatable=0;points=[[0,0.5],[1,0.5]];portConstraint=eastwest;" vertex="1" parent="PYCgQPuMbQlDt2SW8Shz-66">
          <mxGeometry y="72" width="120" height="26" as="geometry" />
        </mxCell>
        <mxCell id="PYCgQPuMbQlDt2SW8Shz-90" style="edgeStyle=orthogonalEdgeStyle;rounded=0;orthogonalLoop=1;jettySize=auto;html=1;endArrow=none;endFill=0;" edge="1" parent="1" source="PYCgQPuMbQlDt2SW8Shz-71" target="PYCgQPuMbQlDt2SW8Shz-86">
          <mxGeometry relative="1" as="geometry">
            <Array as="points">
              <mxPoint x="-585" y="-800" />
              <mxPoint x="-449" y="-800" />
            </Array>
          </mxGeometry>
        </mxCell>
        <mxCell id="PYCgQPuMbQlDt2SW8Shz-110" style="edgeStyle=orthogonalEdgeStyle;rounded=0;orthogonalLoop=1;jettySize=auto;html=1;endArrow=none;endFill=0;" edge="1" parent="1" source="PYCgQPuMbQlDt2SW8Shz-71" target="PYCgQPuMbQlDt2SW8Shz-59">
          <mxGeometry relative="1" as="geometry">
            <Array as="points">
              <mxPoint x="-585" y="-530" />
            </Array>
          </mxGeometry>
        </mxCell>
        <mxCell id="PYCgQPuMbQlDt2SW8Shz-114" value="*" style="edgeLabel;html=1;align=center;verticalAlign=middle;resizable=0;points=[];" vertex="1" connectable="0" parent="PYCgQPuMbQlDt2SW8Shz-110">
          <mxGeometry x="-0.9213" y="-2" relative="1" as="geometry">
            <mxPoint as="offset" />
          </mxGeometry>
        </mxCell>
        <mxCell id="PYCgQPuMbQlDt2SW8Shz-115" value="1" style="edgeLabel;html=1;align=center;verticalAlign=middle;resizable=0;points=[];" vertex="1" connectable="0" parent="PYCgQPuMbQlDt2SW8Shz-110">
          <mxGeometry x="0.9043" y="-2" relative="1" as="geometry">
            <mxPoint as="offset" />
          </mxGeometry>
        </mxCell>
        <mxCell id="PYCgQPuMbQlDt2SW8Shz-71" value="Others" style="swimlane;fontStyle=0;childLayout=stackLayout;horizontal=1;startSize=20;horizontalStack=0;resizeParent=1;resizeParentMax=0;resizeLast=0;collapsible=1;marginBottom=0;fillColor=#f5f5f5;fontColor=#333333;strokeColor=#666666;" vertex="1" parent="1">
          <mxGeometry x="-630" y="-786" width="90" height="46" as="geometry" />
        </mxCell>
        <mxCell id="PYCgQPuMbQlDt2SW8Shz-72" value="+ name" style="text;strokeColor=none;fillColor=none;align=left;verticalAlign=top;spacingLeft=4;spacingRight=4;overflow=hidden;rotatable=0;points=[[0,0.5],[1,0.5]];portConstraint=eastwest;" vertex="1" parent="PYCgQPuMbQlDt2SW8Shz-71">
          <mxGeometry y="20" width="90" height="26" as="geometry" />
        </mxCell>
        <mxCell id="PYCgQPuMbQlDt2SW8Shz-81" style="edgeStyle=orthogonalEdgeStyle;rounded=0;orthogonalLoop=1;jettySize=auto;html=1;endArrow=none;endFill=0;" edge="1" parent="1" source="PYCgQPuMbQlDt2SW8Shz-73" target="PYCgQPuMbQlDt2SW8Shz-86">
          <mxGeometry relative="1" as="geometry">
            <Array as="points">
              <mxPoint x="-485" y="-800" />
              <mxPoint x="-450" y="-800" />
            </Array>
          </mxGeometry>
        </mxCell>
        <mxCell id="PYCgQPuMbQlDt2SW8Shz-93" style="edgeStyle=orthogonalEdgeStyle;rounded=0;orthogonalLoop=1;jettySize=auto;html=1;endArrow=none;endFill=0;" edge="1" parent="1" source="PYCgQPuMbQlDt2SW8Shz-73" target="PYCgQPuMbQlDt2SW8Shz-59">
          <mxGeometry relative="1" as="geometry">
            <Array as="points">
              <mxPoint x="-480" y="-600" />
            </Array>
          </mxGeometry>
        </mxCell>
        <mxCell id="PYCgQPuMbQlDt2SW8Shz-95" value="Sai" style="edgeLabel;html=1;align=center;verticalAlign=middle;resizable=0;points=[];" vertex="1" connectable="0" parent="PYCgQPuMbQlDt2SW8Shz-93">
          <mxGeometry x="-0.3265" y="2" relative="1" as="geometry">
            <mxPoint y="53" as="offset" />
          </mxGeometry>
        </mxCell>
        <mxCell id="PYCgQPuMbQlDt2SW8Shz-103" value="*" style="edgeLabel;html=1;align=center;verticalAlign=middle;resizable=0;points=[];" vertex="1" connectable="0" parent="PYCgQPuMbQlDt2SW8Shz-93">
          <mxGeometry x="-0.9213" y="4" relative="1" as="geometry">
            <mxPoint as="offset" />
          </mxGeometry>
        </mxCell>
        <mxCell id="PYCgQPuMbQlDt2SW8Shz-105" value="1" style="edgeLabel;html=1;align=center;verticalAlign=middle;resizable=0;points=[];" vertex="1" connectable="0" parent="PYCgQPuMbQlDt2SW8Shz-93">
          <mxGeometry x="0.875" relative="1" as="geometry">
            <mxPoint y="1" as="offset" />
          </mxGeometry>
        </mxCell>
        <mxCell id="PYCgQPuMbQlDt2SW8Shz-94" style="edgeStyle=orthogonalEdgeStyle;rounded=0;orthogonalLoop=1;jettySize=auto;html=1;endArrow=none;endFill=0;" edge="1" parent="1" source="PYCgQPuMbQlDt2SW8Shz-73" target="PYCgQPuMbQlDt2SW8Shz-59">
          <mxGeometry relative="1" as="geometry">
            <Array as="points">
              <mxPoint x="-510" y="-571" />
            </Array>
          </mxGeometry>
        </mxCell>
        <mxCell id="PYCgQPuMbQlDt2SW8Shz-97" value="Entra" style="edgeLabel;html=1;align=center;verticalAlign=middle;resizable=0;points=[];" vertex="1" connectable="0" parent="PYCgQPuMbQlDt2SW8Shz-94">
          <mxGeometry x="-0.0267" y="3" relative="1" as="geometry">
            <mxPoint y="1" as="offset" />
          </mxGeometry>
        </mxCell>
        <mxCell id="PYCgQPuMbQlDt2SW8Shz-104" value="*" style="edgeLabel;html=1;align=center;verticalAlign=middle;resizable=0;points=[];" vertex="1" connectable="0" parent="PYCgQPuMbQlDt2SW8Shz-94">
          <mxGeometry x="-0.9308" y="4" relative="1" as="geometry">
            <mxPoint as="offset" />
          </mxGeometry>
        </mxCell>
        <mxCell id="PYCgQPuMbQlDt2SW8Shz-106" value="1" style="edgeLabel;html=1;align=center;verticalAlign=middle;resizable=0;points=[];" vertex="1" connectable="0" parent="PYCgQPuMbQlDt2SW8Shz-94">
          <mxGeometry x="0.9195" relative="1" as="geometry">
            <mxPoint y="1" as="offset" />
          </mxGeometry>
        </mxCell>
        <mxCell id="PYCgQPuMbQlDt2SW8Shz-73" value="Substitution" style="swimlane;fontStyle=0;childLayout=stackLayout;horizontal=1;startSize=20;horizontalStack=0;resizeParent=1;resizeParentMax=0;resizeLast=0;collapsible=1;marginBottom=0;fillColor=#f5f5f5;fontColor=#333333;strokeColor=#666666;" vertex="1" parent="1">
          <mxGeometry x="-530" y="-786" width="90" height="46" as="geometry" />
        </mxCell>
        <mxCell id="PYCgQPuMbQlDt2SW8Shz-80" style="edgeStyle=orthogonalEdgeStyle;rounded=0;orthogonalLoop=1;jettySize=auto;html=1;endArrow=none;endFill=0;" edge="1" parent="1" source="PYCgQPuMbQlDt2SW8Shz-75" target="PYCgQPuMbQlDt2SW8Shz-86">
          <mxGeometry relative="1" as="geometry">
            <Array as="points">
              <mxPoint x="-385" y="-800" />
              <mxPoint x="-450" y="-800" />
            </Array>
          </mxGeometry>
        </mxCell>
        <mxCell id="PYCgQPuMbQlDt2SW8Shz-107" style="edgeStyle=orthogonalEdgeStyle;rounded=0;orthogonalLoop=1;jettySize=auto;html=1;endArrow=none;endFill=0;" edge="1" parent="1" source="PYCgQPuMbQlDt2SW8Shz-75" target="PYCgQPuMbQlDt2SW8Shz-59">
          <mxGeometry relative="1" as="geometry">
            <Array as="points">
              <mxPoint x="-385" y="-670" />
              <mxPoint x="-385" y="-670" />
            </Array>
          </mxGeometry>
        </mxCell>
        <mxCell id="PYCgQPuMbQlDt2SW8Shz-116" value="*" style="edgeLabel;html=1;align=center;verticalAlign=middle;resizable=0;points=[];" vertex="1" connectable="0" parent="PYCgQPuMbQlDt2SW8Shz-107">
          <mxGeometry x="-0.8333" y="-2" relative="1" as="geometry">
            <mxPoint as="offset" />
          </mxGeometry>
        </mxCell>
        <mxCell id="PYCgQPuMbQlDt2SW8Shz-117" value="1" style="edgeLabel;html=1;align=center;verticalAlign=middle;resizable=0;points=[];" vertex="1" connectable="0" parent="PYCgQPuMbQlDt2SW8Shz-107">
          <mxGeometry x="0.7949" y="-1" relative="1" as="geometry">
            <mxPoint as="offset" />
          </mxGeometry>
        </mxCell>
        <mxCell id="PYCgQPuMbQlDt2SW8Shz-75" value="Card" style="swimlane;fontStyle=0;childLayout=stackLayout;horizontal=1;startSize=20;horizontalStack=0;resizeParent=1;resizeParentMax=0;resizeLast=0;collapsible=1;marginBottom=0;fillColor=#f5f5f5;fontColor=#333333;strokeColor=#666666;" vertex="1" parent="1">
          <mxGeometry x="-430" y="-786" width="90" height="46" as="geometry" />
        </mxCell>
        <mxCell id="PYCgQPuMbQlDt2SW8Shz-76" value="+ color" style="text;strokeColor=none;fillColor=none;align=left;verticalAlign=top;spacingLeft=4;spacingRight=4;overflow=hidden;rotatable=0;points=[[0,0.5],[1,0.5]];portConstraint=eastwest;" vertex="1" parent="PYCgQPuMbQlDt2SW8Shz-75">
          <mxGeometry y="20" width="90" height="26" as="geometry" />
        </mxCell>
        <mxCell id="PYCgQPuMbQlDt2SW8Shz-89" style="edgeStyle=orthogonalEdgeStyle;rounded=0;orthogonalLoop=1;jettySize=auto;html=1;endArrow=none;endFill=0;" edge="1" parent="1" source="PYCgQPuMbQlDt2SW8Shz-77" target="PYCgQPuMbQlDt2SW8Shz-86">
          <mxGeometry relative="1" as="geometry">
            <Array as="points">
              <mxPoint x="-285" y="-800" />
              <mxPoint x="-449" y="-800" />
            </Array>
          </mxGeometry>
        </mxCell>
        <mxCell id="PYCgQPuMbQlDt2SW8Shz-111" style="edgeStyle=orthogonalEdgeStyle;rounded=0;orthogonalLoop=1;jettySize=auto;html=1;endArrow=none;endFill=0;" edge="1" parent="1" source="PYCgQPuMbQlDt2SW8Shz-77" target="PYCgQPuMbQlDt2SW8Shz-59">
          <mxGeometry relative="1" as="geometry">
            <Array as="points">
              <mxPoint x="-285" y="-600" />
            </Array>
          </mxGeometry>
        </mxCell>
        <mxCell id="PYCgQPuMbQlDt2SW8Shz-112" value="*" style="edgeLabel;html=1;align=center;verticalAlign=middle;resizable=0;points=[];" vertex="1" connectable="0" parent="PYCgQPuMbQlDt2SW8Shz-111">
          <mxGeometry x="-0.8916" y="2" relative="1" as="geometry">
            <mxPoint as="offset" />
          </mxGeometry>
        </mxCell>
        <mxCell id="PYCgQPuMbQlDt2SW8Shz-113" value="1" style="edgeLabel;html=1;align=center;verticalAlign=middle;resizable=0;points=[];" vertex="1" connectable="0" parent="PYCgQPuMbQlDt2SW8Shz-111">
          <mxGeometry x="0.8974" y="2" relative="1" as="geometry">
            <mxPoint as="offset" />
          </mxGeometry>
        </mxCell>
        <mxCell id="PYCgQPuMbQlDt2SW8Shz-136" style="edgeStyle=orthogonalEdgeStyle;rounded=0;orthogonalLoop=1;jettySize=auto;html=1;endArrow=none;endFill=0;" edge="1" parent="1" source="PYCgQPuMbQlDt2SW8Shz-77" target="PYCgQPuMbQlDt2SW8Shz-19">
          <mxGeometry relative="1" as="geometry">
            <Array as="points">
              <mxPoint x="-252" y="-900" />
            </Array>
          </mxGeometry>
        </mxCell>
        <mxCell id="PYCgQPuMbQlDt2SW8Shz-137" value="a favor&amp;nbsp;" style="edgeLabel;html=1;align=center;verticalAlign=middle;resizable=0;points=[];" vertex="1" connectable="0" parent="PYCgQPuMbQlDt2SW8Shz-136">
          <mxGeometry x="-0.4275" y="-2" relative="1" as="geometry">
            <mxPoint as="offset" />
          </mxGeometry>
        </mxCell>
        <mxCell id="PYCgQPuMbQlDt2SW8Shz-138" value="*" style="edgeLabel;html=1;align=center;verticalAlign=middle;resizable=0;points=[];" vertex="1" connectable="0" parent="PYCgQPuMbQlDt2SW8Shz-136">
          <mxGeometry x="-0.9493" y="-2" relative="1" as="geometry">
            <mxPoint as="offset" />
          </mxGeometry>
        </mxCell>
        <mxCell id="PYCgQPuMbQlDt2SW8Shz-139" value="1" style="edgeLabel;html=1;align=center;verticalAlign=middle;resizable=0;points=[];" vertex="1" connectable="0" parent="PYCgQPuMbQlDt2SW8Shz-136">
          <mxGeometry x="0.9241" y="-3" relative="1" as="geometry">
            <mxPoint x="3" y="-12" as="offset" />
          </mxGeometry>
        </mxCell>
        <mxCell id="PYCgQPuMbQlDt2SW8Shz-77" value="Goal" style="swimlane;fontStyle=0;childLayout=stackLayout;horizontal=1;startSize=20;horizontalStack=0;resizeParent=1;resizeParentMax=0;resizeLast=0;collapsible=1;marginBottom=0;fillColor=#f5f5f5;fontColor=#333333;strokeColor=#666666;" vertex="1" parent="1">
          <mxGeometry x="-330" y="-786" width="90" height="46" as="geometry" />
        </mxCell>
        <mxCell id="PYCgQPuMbQlDt2SW8Shz-91" style="edgeStyle=orthogonalEdgeStyle;rounded=0;orthogonalLoop=1;jettySize=auto;html=1;endArrow=none;endFill=0;" edge="1" parent="1" source="PYCgQPuMbQlDt2SW8Shz-86" target="PYCgQPuMbQlDt2SW8Shz-66">
          <mxGeometry relative="1" as="geometry" />
        </mxCell>
        <mxCell id="PYCgQPuMbQlDt2SW8Shz-86" value="" style="triangle;whiteSpace=wrap;html=1;rotation=-91;" vertex="1" parent="1">
          <mxGeometry x="-465" y="-890" width="35" height="42" as="geometry" />
        </mxCell>
        <mxCell id="PYCgQPuMbQlDt2SW8Shz-99" style="edgeStyle=orthogonalEdgeStyle;rounded=0;orthogonalLoop=1;jettySize=auto;html=1;endArrow=none;endFill=0;" edge="1" parent="1" source="PYCgQPuMbQlDt2SW8Shz-67" target="PYCgQPuMbQlDt2SW8Shz-11">
          <mxGeometry relative="1" as="geometry">
            <mxPoint x="-129" y="-1008" as="targetPoint" />
          </mxGeometry>
        </mxCell>
        <mxCell id="PYCgQPuMbQlDt2SW8Shz-101" value="*" style="edgeLabel;html=1;align=center;verticalAlign=middle;resizable=0;points=[];" vertex="1" connectable="0" parent="PYCgQPuMbQlDt2SW8Shz-99">
          <mxGeometry x="-0.9094" y="1" relative="1" as="geometry">
            <mxPoint as="offset" />
          </mxGeometry>
        </mxCell>
        <mxCell id="PYCgQPuMbQlDt2SW8Shz-102" value="1" style="edgeLabel;html=1;align=center;verticalAlign=middle;resizable=0;points=[];" vertex="1" connectable="0" parent="PYCgQPuMbQlDt2SW8Shz-99">
          <mxGeometry x="0.8303" relative="1" as="geometry">
            <mxPoint as="offset" />
          </mxGeometry>
        </mxCell>
        <mxCell id="PYCgQPuMbQlDt2SW8Shz-133" style="edgeStyle=orthogonalEdgeStyle;rounded=0;orthogonalLoop=1;jettySize=auto;html=1;endArrow=none;endFill=0;" edge="1" parent="1" source="PYCgQPuMbQlDt2SW8Shz-118" target="PYCgQPuMbQlDt2SW8Shz-49">
          <mxGeometry relative="1" as="geometry" />
        </mxCell>
        <mxCell id="PYCgQPuMbQlDt2SW8Shz-134" value="*" style="edgeLabel;html=1;align=center;verticalAlign=middle;resizable=0;points=[];" vertex="1" connectable="0" parent="PYCgQPuMbQlDt2SW8Shz-133">
          <mxGeometry x="-0.8006" y="1" relative="1" as="geometry">
            <mxPoint as="offset" />
          </mxGeometry>
        </mxCell>
        <mxCell id="PYCgQPuMbQlDt2SW8Shz-135" value="1" style="edgeLabel;html=1;align=center;verticalAlign=middle;resizable=0;points=[];" vertex="1" connectable="0" parent="PYCgQPuMbQlDt2SW8Shz-133">
          <mxGeometry x="0.8075" y="-1" relative="1" as="geometry">
            <mxPoint as="offset" />
          </mxGeometry>
        </mxCell>
        <mxCell id="PYCgQPuMbQlDt2SW8Shz-118" value="PeriodoInsc" style="swimlane;fontStyle=0;childLayout=stackLayout;horizontal=1;startSize=20;horizontalStack=0;resizeParent=1;resizeParentMax=0;resizeLast=0;collapsible=1;marginBottom=0;fillColor=#f5f5f5;fontColor=#333333;strokeColor=#666666;" vertex="1" parent="1">
          <mxGeometry x="78" y="-669" width="120" height="72" as="geometry" />
        </mxCell>
        <mxCell id="PYCgQPuMbQlDt2SW8Shz-119" value="+ dateInicio" style="text;strokeColor=none;fillColor=none;align=left;verticalAlign=top;spacingLeft=4;spacingRight=4;overflow=hidden;rotatable=0;points=[[0,0.5],[1,0.5]];portConstraint=eastwest;" vertex="1" parent="PYCgQPuMbQlDt2SW8Shz-118">
          <mxGeometry y="20" width="120" height="26" as="geometry" />
        </mxCell>
        <mxCell id="PYCgQPuMbQlDt2SW8Shz-120" value="+ dateFim" style="text;strokeColor=none;fillColor=none;align=left;verticalAlign=top;spacingLeft=4;spacingRight=4;overflow=hidden;rotatable=0;points=[[0,0.5],[1,0.5]];portConstraint=eastwest;" vertex="1" parent="PYCgQPuMbQlDt2SW8Shz-118">
          <mxGeometry y="46" width="120" height="26" as="geometry" />
        </mxCell>
        <mxCell id="PYCgQPuMbQlDt2SW8Shz-123" style="edgeStyle=orthogonalEdgeStyle;rounded=0;orthogonalLoop=1;jettySize=auto;html=1;endArrow=none;endFill=0;" edge="1" parent="1" source="PYCgQPuMbQlDt2SW8Shz-122" target="PYCgQPuMbQlDt2SW8Shz-19">
          <mxGeometry relative="1" as="geometry">
            <Array as="points">
              <mxPoint x="-52" y="-860" />
            </Array>
          </mxGeometry>
        </mxCell>
        <mxCell id="PYCgQPuMbQlDt2SW8Shz-126" value="1" style="edgeLabel;html=1;align=center;verticalAlign=middle;resizable=0;points=[];" vertex="1" connectable="0" parent="PYCgQPuMbQlDt2SW8Shz-123">
          <mxGeometry x="0.9395" y="1" relative="1" as="geometry">
            <mxPoint as="offset" />
          </mxGeometry>
        </mxCell>
        <mxCell id="PYCgQPuMbQlDt2SW8Shz-124" style="edgeStyle=orthogonalEdgeStyle;rounded=0;orthogonalLoop=1;jettySize=auto;html=1;endArrow=none;endFill=0;" edge="1" parent="1" source="PYCgQPuMbQlDt2SW8Shz-122" target="PYCgQPuMbQlDt2SW8Shz-59">
          <mxGeometry relative="1" as="geometry">
            <Array as="points">
              <mxPoint x="-270" y="-540" />
              <mxPoint x="-270" y="-540" />
            </Array>
          </mxGeometry>
        </mxCell>
        <mxCell id="PYCgQPuMbQlDt2SW8Shz-125" value="*" style="edgeLabel;html=1;align=center;verticalAlign=middle;resizable=0;points=[];" vertex="1" connectable="0" parent="PYCgQPuMbQlDt2SW8Shz-124">
          <mxGeometry x="0.8896" y="2" relative="1" as="geometry">
            <mxPoint as="offset" />
          </mxGeometry>
        </mxCell>
        <mxCell id="PYCgQPuMbQlDt2SW8Shz-127" style="edgeStyle=orthogonalEdgeStyle;rounded=0;orthogonalLoop=1;jettySize=auto;html=1;endArrow=none;endFill=0;" edge="1" parent="1" source="PYCgQPuMbQlDt2SW8Shz-122" target="PYCgQPuMbQlDt2SW8Shz-118">
          <mxGeometry relative="1" as="geometry" />
        </mxCell>
        <mxCell id="PYCgQPuMbQlDt2SW8Shz-128" value="*" style="edgeLabel;html=1;align=center;verticalAlign=middle;resizable=0;points=[];" vertex="1" connectable="0" parent="PYCgQPuMbQlDt2SW8Shz-127">
          <mxGeometry x="0.7991" y="1" relative="1" as="geometry">
            <mxPoint as="offset" />
          </mxGeometry>
        </mxCell>
        <mxCell id="PYCgQPuMbQlDt2SW8Shz-142" style="edgeStyle=orthogonalEdgeStyle;rounded=0;orthogonalLoop=1;jettySize=auto;html=1;endArrow=none;endFill=0;dashed=1;" edge="1" parent="1" source="PYCgQPuMbQlDt2SW8Shz-122" target="PYCgQPuMbQlDt2SW8Shz-146">
          <mxGeometry relative="1" as="geometry">
            <mxPoint x="-78" y="-496" as="sourcePoint" />
            <mxPoint x="-12" y="-469" as="targetPoint" />
            <Array as="points" />
          </mxGeometry>
        </mxCell>
        <mxCell id="PYCgQPuMbQlDt2SW8Shz-122" value="" style="rhombus;whiteSpace=wrap;html=1;" vertex="1" parent="1">
          <mxGeometry x="-92" y="-580" width="80" height="80" as="geometry" />
        </mxCell>
        <mxCell id="PYCgQPuMbQlDt2SW8Shz-146" value="Inscricao" style="swimlane;fontStyle=0;childLayout=stackLayout;horizontal=1;startSize=20;horizontalStack=0;resizeParent=1;resizeParentMax=0;resizeLast=0;collapsible=1;marginBottom=0;fillColor=#f5f5f5;fontColor=#333333;strokeColor=#666666;" vertex="1" parent="1">
          <mxGeometry x="-112" y="-452" width="120" height="72" as="geometry" />
        </mxCell>
        <mxCell id="PYCgQPuMbQlDt2SW8Shz-147" value="+ dateInicio" style="text;strokeColor=none;fillColor=none;align=left;verticalAlign=top;spacingLeft=4;spacingRight=4;overflow=hidden;rotatable=0;points=[[0,0.5],[1,0.5]];portConstraint=eastwest;" vertex="1" parent="PYCgQPuMbQlDt2SW8Shz-146">
          <mxGeometry y="20" width="120" height="26" as="geometry" />
        </mxCell>
        <mxCell id="PYCgQPuMbQlDt2SW8Shz-148" value="+ dateFim" style="text;strokeColor=none;fillColor=none;align=left;verticalAlign=top;spacingLeft=4;spacingRight=4;overflow=hidden;rotatable=0;points=[[0,0.5],[1,0.5]];portConstraint=eastwest;" vertex="1" parent="PYCgQPuMbQlDt2SW8Shz-146">
          <mxGeometry y="46" width="120" height="26" as="geometry" />
        </mxCell>
      </root>
    </mxGraphModel>
  </diagram>
  <diagram id="L9Oa7HhawNxQcOiJoJES" name="F01_ex8">
    <mxGraphModel dx="2482" dy="1986" grid="1" gridSize="10" guides="1" tooltips="1" connect="1" arrows="1" fold="1" page="1" pageScale="1" pageWidth="827" pageHeight="1169" math="0" shadow="0">
      <root>
        <mxCell id="0" />
        <mxCell id="1" parent="0" />
        <mxCell id="wZYyvy86M3KgqGwLKT0E-1" value="Local" style="swimlane;fontStyle=0;childLayout=stackLayout;horizontal=1;startSize=20;horizontalStack=0;resizeParent=1;resizeParentMax=0;resizeLast=0;collapsible=1;marginBottom=0;fillColor=#f5f5f5;fontColor=#333333;strokeColor=#666666;" vertex="1" parent="1">
          <mxGeometry x="-720" y="-1080" width="120" height="46" as="geometry" />
        </mxCell>
        <mxCell id="wZYyvy86M3KgqGwLKT0E-2" value="+ name" style="text;strokeColor=none;fillColor=none;align=left;verticalAlign=top;spacingLeft=4;spacingRight=4;overflow=hidden;rotatable=0;points=[[0,0.5],[1,0.5]];portConstraint=eastwest;" vertex="1" parent="wZYyvy86M3KgqGwLKT0E-1">
          <mxGeometry y="20" width="120" height="26" as="geometry" />
        </mxCell>
        <mxCell id="wZYyvy86M3KgqGwLKT0E-5" value="Barreira" style="swimlane;fontStyle=0;childLayout=stackLayout;horizontal=1;startSize=20;horizontalStack=0;resizeParent=1;resizeParentMax=0;resizeLast=0;collapsible=1;marginBottom=0;fillColor=#f5f5f5;fontColor=#333333;strokeColor=#666666;" vertex="1" parent="1">
          <mxGeometry x="-400" y="-1080" width="120" height="46" as="geometry" />
        </mxCell>
        <mxCell id="wZYyvy86M3KgqGwLKT0E-6" value="+ name" style="text;strokeColor=none;fillColor=none;align=left;verticalAlign=top;spacingLeft=4;spacingRight=4;overflow=hidden;rotatable=0;points=[[0,0.5],[1,0.5]];portConstraint=eastwest;" vertex="1" parent="wZYyvy86M3KgqGwLKT0E-5">
          <mxGeometry y="20" width="120" height="26" as="geometry" />
        </mxCell>
        <mxCell id="wZYyvy86M3KgqGwLKT0E-7" value="Passagem" style="swimlane;fontStyle=0;childLayout=stackLayout;horizontal=1;startSize=20;horizontalStack=0;resizeParent=1;resizeParentMax=0;resizeLast=0;collapsible=1;marginBottom=0;fillColor=#f5f5f5;fontColor=#333333;strokeColor=#666666;" vertex="1" parent="1">
          <mxGeometry x="-490" y="-840" width="120" height="46" as="geometry" />
        </mxCell>
        <mxCell id="wZYyvy86M3KgqGwLKT0E-8" value="+ name" style="text;strokeColor=none;fillColor=none;align=left;verticalAlign=top;spacingLeft=4;spacingRight=4;overflow=hidden;rotatable=0;points=[[0,0.5],[1,0.5]];portConstraint=eastwest;" vertex="1" parent="wZYyvy86M3KgqGwLKT0E-7">
          <mxGeometry y="20" width="120" height="26" as="geometry" />
        </mxCell>
        <mxCell id="wZYyvy86M3KgqGwLKT0E-9" value="ViaVerde" style="swimlane;fontStyle=0;childLayout=stackLayout;horizontal=1;startSize=20;horizontalStack=0;resizeParent=1;resizeParentMax=0;resizeLast=0;collapsible=1;marginBottom=0;fillColor=#f5f5f5;fontColor=#333333;strokeColor=#666666;" vertex="1" parent="1">
          <mxGeometry x="-250" y="-880" width="120" height="46" as="geometry" />
        </mxCell>
        <mxCell id="wZYyvy86M3KgqGwLKT0E-10" value="+ name" style="text;strokeColor=none;fillColor=none;align=left;verticalAlign=top;spacingLeft=4;spacingRight=4;overflow=hidden;rotatable=0;points=[[0,0.5],[1,0.5]];portConstraint=eastwest;" vertex="1" parent="wZYyvy86M3KgqGwLKT0E-9">
          <mxGeometry y="20" width="120" height="26" as="geometry" />
        </mxCell>
        <mxCell id="wZYyvy86M3KgqGwLKT0E-11" value="ViaNormal" style="swimlane;fontStyle=0;childLayout=stackLayout;horizontal=1;startSize=20;horizontalStack=0;resizeParent=1;resizeParentMax=0;resizeLast=0;collapsible=1;marginBottom=0;fillColor=#f5f5f5;fontColor=#333333;strokeColor=#666666;" vertex="1" parent="1">
          <mxGeometry x="-250" y="-780" width="120" height="46" as="geometry" />
        </mxCell>
        <mxCell id="wZYyvy86M3KgqGwLKT0E-12" value="+ name" style="text;strokeColor=none;fillColor=none;align=left;verticalAlign=top;spacingLeft=4;spacingRight=4;overflow=hidden;rotatable=0;points=[[0,0.5],[1,0.5]];portConstraint=eastwest;" vertex="1" parent="wZYyvy86M3KgqGwLKT0E-11">
          <mxGeometry y="20" width="120" height="26" as="geometry" />
        </mxCell>
      </root>
    </mxGraphModel>
  </diagram>
</mxfile>
